<svg width="0" height="0" class="hidden">
  <symbol xmlns="http://www.w3.org/2000/svg" viewBox="0 0 512 512" id="v">
    <path d="M367.652 378.479c14.641-18.205 21.965-38.888 21.965-62.048 0-38.695-29.636-65.729-71.132-75.48 17.855-4.725 31.278-9.923 40.285-22.494 9.003-12.571 13.505-26.638 13.505-42.177 0-21.333-7.753-34.233-23.254-50.84-15.504-16.607-40.166-24.91-73.99-24.91H129.5v311.94h152.686c47.919.001 70.824-15.785 85.466-33.991zM210.425 162.222h36.416c21.922 0 32.887 7.938 32.887 25.305 0 6.398-2.349 18.433-7.045 24.068-4.7 5.637-12.769 8.455-24.197 8.455h-38.06v-57.828zM210 343v-56.676h44.632c14.405 0 24.313 3.01 29.715 9.026 5.399 6.019 8.106 12.605 8.106 19.768 0 7.164-2.783 13.595-8.339 19.31-5.563 5.719-14.296 8.572-26.194 8.572H210z"></path>
  </symbol>
  <symbol xmlns="http://www.w3.org/2000/svg" viewBox="0 0 320 512" id="f">
    <path d="M279.14 288l14.22-92.66h-88.91v-60.13c0-25.35 12.42-50.06 52.24-50.06h40.42V6.26S260.43 0 225.36 0c-73.22 0-121.08 44.38-121.08 124.72v70.62H22.89V288h81.39v224h100.17V288z"></path>
  </symbol>
  <symbol xmlns="http://www.w3.org/2000/svg" viewBox="0 0 95.481 95.481" id="ok">
    <path d="M43.041 67.254c-7.402-.772-14.076-2.595-19.79-7.064-.709-.556-1.441-1.092-2.088-1.713-2.501-2.402-2.753-5.153-.774-7.988 1.693-2.426 4.535-3.075 7.489-1.682.572.27 1.117.607 1.639.969 10.649 7.317 25.278 7.519 35.967.329 1.059-.812 2.191-1.474 3.503-1.812 2.551-.655 4.93.282 6.299 2.514 1.564 2.549 1.544 5.037-.383 7.016-2.956 3.034-6.511 5.229-10.461 6.761-3.735 1.448-7.826 2.177-11.875 2.661.611.665.899.992 1.281 1.376 5.498 5.524 11.02 11.025 16.5 16.566 1.867 1.888 2.257 4.229 1.229 6.425-1.124 2.4-3.64 3.979-6.107 3.81-1.563-.108-2.782-.886-3.865-1.977-4.149-4.175-8.376-8.273-12.441-12.527-1.183-1.237-1.752-1.003-2.796.071-4.174 4.297-8.416 8.528-12.683 12.735-1.916 1.889-4.196 2.229-6.418 1.15-2.362-1.145-3.865-3.556-3.749-5.979.08-1.639.886-2.891 2.011-4.014 5.441-5.433 10.867-10.88 16.295-16.322.359-.362.694-.746 1.217-1.305z"></path>
    <path d="M47.55 48.329c-13.205-.045-24.033-10.992-23.956-24.218C23.67 10.739 34.505-.037 47.84 0c13.362.036 24.087 10.967 24.02 24.478-.068 13.199-10.971 23.897-24.31 23.851zm12.001-24.186c-.023-6.567-5.253-11.795-11.807-11.801-6.609-.007-11.886 5.316-11.835 11.943.049 6.542 5.324 11.733 11.896 11.709 6.552-.023 11.768-5.285 11.746-11.851z"></path>
  </symbol>
  <symbol xmlns="http://www.w3.org/2000/svg" viewBox="0 0 500 500" id="t">
    <path d="M337.9 250.4c12.2 0 22.6-4.5 31.3-13.4 8.7-9 13-19.7 13-32.3 0-12.6-4.3-23.3-13.1-32.3-8.7-9-19.2-13.5-31.4-13.5H206.4v-45.7c0-12.6-4.3-23.3-13-32.3-8.6-9-19-13.5-31.1-13.5-12.4 0-23 4.4-31.6 13.2-8.6 8.8-12.9 19.7-12.9 32.6v182.5c0 37.7 12.9 69.9 38.9 96.6 25.9 26.8 57.1 40.1 93.6 40.1H338c12.2 0 22.6-4.5 31.3-13.4s13-19.7 13-32.3c0-12.6-4.3-23.3-13-32.3-8.7-9-19.1-13.5-31.3-13.5h-87.7c-12.2 0-22.5-4.4-31.1-13.2-8.5-8.8-12.8-19.5-12.8-32.1v-45.3l131.5.1z"></path>
  </symbol>
</svg>