<?xml version="1.0" encoding="utf-8"?>
<!-- Generator: Adobe Illustrator 19.0.0, SVG Export Plug-In . SVG Version: 6.00 Build 0)  -->
<svg version="1.1" id="Layer_1" xmlns="http://www.w3.org/2000/svg" xmlns:xlink="http://www.w3.org/1999/xlink" x="0px" y="0px"
	 viewBox="0 0 500 500" style="enable-background:new 0 0 500 500;" xml:space="preserve">
<style type="text/css">
	.st0{fill:#33CCFF;}
</style>
<g id="XMLID_1_">
	<path id="XMLID_3_" class="st0" d="M337.9,250.4c12.2,0,22.6-4.5,31.3-13.4c8.7-9,13-19.7,13-32.3c0-12.6-4.3-23.3-13.1-32.3
		c-8.7-9-19.2-13.5-31.4-13.5H206.4v-45.7c0-12.6-4.3-23.3-13-32.3c-8.6-9-19-13.5-31.1-13.5c-12.4,0-23,4.4-31.6,13.2
		c-8.6,8.8-12.9,19.7-12.9,32.6v182.5c0,37.7,12.9,69.9,38.9,96.6c25.9,26.8,57.1,40.1,93.6,40.1h87.7c12.2,0,22.6-4.5,31.3-13.4
		c8.7-8.9,13-19.7,13-32.3c0-12.6-4.3-23.3-13-32.3c-8.7-9-19.1-13.5-31.3-13.5h-87.7c-12.2,0-22.5-4.4-31.1-13.2
		c-8.5-8.8-12.8-19.5-12.8-32.1v-45.3L337.9,250.4L337.9,250.4z"/>
</g>
</svg>
