<?xml version="1.0" encoding="UTF-8" standalone="no"?>
<!-- Created with Inkscape (http://www.inkscape.org/) -->

<svg
   xmlns:dc="http://purl.org/dc/elements/1.1/"
   xmlns:cc="http://creativecommons.org/ns#"
   xmlns:rdf="http://www.w3.org/1999/02/22-rdf-syntax-ns#"
   xmlns:svg="http://www.w3.org/2000/svg"
   xmlns="http://www.w3.org/2000/svg"
   xmlns:xlink="http://www.w3.org/1999/xlink"
   xmlns:sodipodi="http://sodipodi.sourceforge.net/DTD/sodipodi-0.dtd"
   xmlns:inkscape="http://www.inkscape.org/namespaces/inkscape"
   width="518.75"
   height="518.75"
   id="svg2"
   version="1.1"
   inkscape:version="0.48.5 r10040"
   sodipodi:docname="New document 1">
  <defs
     id="defs4">
    <linearGradient
       id="linearGradient3848">
      <stop
         style="stop-color:#6186ab;stop-opacity:1;"
         offset="0"
         id="stop3850" />
      <stop
         style="stop-color:#3d668f;stop-opacity:1;"
         offset="1"
         id="stop3852" />
    </linearGradient>
    <linearGradient
       id="linearGradient3822">
      <stop
         style="stop-color:#fbfbfb;stop-opacity:1;"
         offset="0"
         id="stop3824" />
      <stop
         style="stop-color:#cccccc;stop-opacity:1;"
         offset="1"
         id="stop3826" />
    </linearGradient>
    <linearGradient
       inkscape:collect="always"
       xlink:href="#linearGradient3822"
       id="linearGradient3828"
       x1="209.11255"
       y1="99.157806"
       x2="208.63177"
       y2="317.07001"
       gradientUnits="userSpaceOnUse" />
    <linearGradient
       inkscape:collect="always"
       xlink:href="#linearGradient3848"
       id="linearGradient3854"
       x1="207.5"
       y1="0.74372762"
       x2="206.75627"
       y2="415.74371"
       gradientUnits="userSpaceOnUse" />
  </defs>
  <sodipodi:namedview
     id="base"
     pagecolor="#ffffff"
     bordercolor="#666666"
     borderopacity="1.0"
     inkscape:pageopacity="0.0"
     inkscape:pageshadow="2"
     inkscape:zoom="1.0756627"
     inkscape:cx="259.375"
     inkscape:cy="259.375"
     inkscape:document-units="px"
     inkscape:current-layer="layer1"
     showgrid="false"
     fit-margin-top="0"
     fit-margin-left="0"
     fit-margin-right="0"
     fit-margin-bottom="0"
     inkscape:window-width="1366"
     inkscape:window-height="745"
     inkscape:window-x="-8"
     inkscape:window-y="-8"
     inkscape:window-maximized="1" />
  <metadata
     id="metadata7">
    <rdf:RDF>
      <cc:Work
         rdf:about="">
        <dc:format>image/svg+xml</dc:format>
        <dc:type
           rdf:resource="http://purl.org/dc/dcmitype/StillImage" />
        <dc:title></dc:title>
      </cc:Work>
    </rdf:RDF>
  </metadata>
  <g
     inkscape:label="Layer 1"
     inkscape:groupmode="layer"
     id="layer1"
     transform="translate(-429.19642,-164.41575)">
    <g
       id="#000000ff"
       transform="matrix(1.25,0,0,1.25,429.19642,164.41575)" />
    <g
       id="#446a94ff"
       transform="matrix(1.25,0,0,1.25,429.19642,164.41575)"
       style="fill:url(#linearGradient3854);fill-opacity:1">
      <path
         style="fill:url(#linearGradient3854);fill-opacity:1.0"
         inkscape:connector-curvature="0"
         d="m 56.65,0 295.8,0 c 17.73,0.39 35.15,8.39 46.76,21.83 9.29,10.4 14.69,23.91 15.79,37.76 l 0,295.79 c -1.49,18.58 -11.1,36.4 -26.31,47.29 -8.86,6.73 -19.59,10.15 -30.36,12.33 L 56.69,415 C 49.79,413.3 42.7,411.96 36.34,408.65 22.64,402.12 11.5,390.53 5.39,376.65 2.3,369.96 0.94,362.64 0,355.38 L 0,59.6 C 1.34,41.72 10.27,24.49 24.57,13.57 33.76,6.11 45.16,2.19 56.65,0 m 75.96,98.6 c -0.67,12.11 -0.08,24.27 -0.28,36.4 0.09,60.33 -0.49,120.67 -0.48,181 -0.41,2.45 2.07,3.48 4.11,3.22 29.34,0.01 58.69,0 88.04,-0.01 17.09,0.53 34.78,-1.91 50.04,-10.03 5.64,-2.82 10.68,-6.67 15.65,-10.52 13.14,-11.64 20.26,-29.23 20.36,-46.66 0.07,-13.83 -3.3,-28.6 -13.36,-38.69 -7.32,-8.18 -17.41,-13.12 -27.69,-16.48 2.03,-1.63 4.23,-3.01 6.36,-4.5 12.26,-9.42 20.1,-24.76 19.34,-40.34 -0.1,-5.52 0.52,-11.2 -1.33,-16.52 -2.05,-6.28 -4.31,-12.93 -9.29,-17.55 -3.04,-2.94 -5.85,-6.19 -9.43,-8.5 C 261.71,101.3 246.19,97.77 231,98.33 c -31.35,-0.01 -62.7,0.04 -94.05,-0.04 -1.45,0.06 -2.9,0.2 -4.34,0.31 z"
         id="path2989" />
      <path
         style="fill:url(#linearGradient3854);stroke:#446a94;stroke-opacity:1;fill-opacity:1.0"
         inkscape:connector-curvature="0"
         d="m 189.88,141.88 c 7.36,-0.51 14.74,-0.04 22.11,-0.26 6.51,-0.16 13.85,0.89 18.51,5.89 5.94,6.94 6.2,17.29 2.43,25.33 -4.32,8.08 -14.47,10.28 -22.92,10.49 -6.69,-0.14 -13.4,0.22 -20.08,-0.26 -0.44,-13.71 -0.4,-27.47 -0.05,-41.19 z"
         id="path2991" />
      <path
         style="fill:url(#linearGradient3854);stroke:#446a94;stroke-opacity:1;fill-opacity:1.0"
         inkscape:connector-curvature="0"
         d="m 190.03,225.03 c 6.65,-0.38 13.31,-0.05 19.97,-0.16 7.43,-0.14 14.97,-0.07 22.2,1.86 7.03,2.06 13.99,7 15.5,14.6 1.13,7.42 1.34,15.79 -3.08,22.26 -3.69,5.5 -10.19,8.15 -16.39,9.66 -12.53,2.56 -25.38,1.55 -38.07,1.59 -0.19,-16.6 -0.35,-33.21 -0.13,-49.81 z"
         id="path2993" />
    </g>
    <g
       id="#3a6087ff"
       transform="matrix(1.25,0,0,1.25,429.19642,164.41575)">
      <path
         style="fill:#3a6087;stroke:#3a6087;stroke-opacity:1;stroke-width:3.2"
         inkscape:connector-curvature="0"
         d="m 132.61,98.6 c 1.44,-0.11 2.89,-0.25 4.34,-0.31 31.35,0.08 62.7,0.03 94.05,0.04 15.19,-0.56 30.71,2.97 43.65,11.09 3.58,2.31 6.39,5.56 9.43,8.5 4.98,4.62 7.24,11.27 9.29,17.55 1.85,5.32 1.23,11 1.33,16.52 0.76,15.58 -7.08,30.92 -19.34,40.34 -2.13,1.49 -4.33,2.87 -6.36,4.5 10.28,3.36 20.37,8.3 27.69,16.48 10.06,10.09 13.43,24.86 13.36,38.69 -0.1,17.43 -7.22,35.02 -20.36,46.66 -4.97,3.85 -10.01,7.7 -15.65,10.52 -15.26,8.12 -32.95,10.56 -50.04,10.03 -29.35,0.01 -58.7,0.02 -88.04,0.01 -2.04,0.26 -4.52,-0.77 -4.11,-3.22 -0.01,-60.33 0.57,-120.67 0.48,-181 0.2,-12.13 -0.39,-24.29 0.28,-36.4 m 1.4,1.41 c -0.02,72.32 -0.02,144.65 0.01,216.97 30.66,0.04 61.32,0.01 91.98,0.02 18.46,-0.21 37.75,-3.05 53.33,-13.66 14.82,-9.19 25.5,-24.97 27.61,-42.38 1.23,-11.9 0.97,-24.53 -4.38,-35.5 -6.09,-12.6 -18.34,-21.34 -31.43,-25.56 -2.71,-0.99 -5.73,-1.19 -8.23,-2.71 6.57,-3.14 12.96,-6.98 17.74,-12.58 8.35,-9.41 12.79,-22.06 12.4,-34.61 0.46,-13.6 -4.88,-27.75 -15.75,-36.29 -12.78,-10.01 -29.35,-13.6 -45.29,-13.74 -32.66,0.05 -65.33,-0.03 -97.99,0.04 z"
         id="path2996" />
      <path
         style="fill:#3a6087;stroke:#3a6087;stroke-opacity:1;stroke-width:3.2"
         inkscape:connector-curvature="0"
         d="m 188.04,139.81 c 8.64,-0.2 17.28,-0.12 25.92,-0.05 6.6,0.11 13.92,1.6 18.37,6.89 5.73,7.19 6.23,17.48 3.03,25.85 -3.26,7.96 -12.25,11.67 -20.29,12.47 -9,0.33 -18.02,0.18 -27.03,0.14 -0.06,-15.1 -0.07,-30.2 0,-45.3 m 1.84,2.07 c -0.35,13.72 -0.39,27.48 0.05,41.19 6.68,0.48 13.39,0.12 20.08,0.26 8.45,-0.21 18.6,-2.41 22.92,-10.49 3.77,-8.04 3.51,-18.39 -2.43,-25.33 -4.66,-5 -12,-6.05 -18.51,-5.89 -7.37,0.22 -14.75,-0.25 -22.11,0.26 z"
         id="path2998" />
      <path
         style="fill:#3a6087;stroke:#3a6087;stroke-opacity:1;stroke-width:3.2"
         inkscape:connector-curvature="0"
         d="m 188.02,223.02 c 11.35,0.02 22.7,-0.14 34.05,0.08 8.34,0.21 17.18,2.52 23.11,8.73 4.6,4.81 5.81,11.79 5.62,18.21 0.07,7.91 -3.24,16.32 -10.13,20.68 -7.64,4.73 -16.79,6.38 -25.67,6.28 -9,-0.01 -17.99,0.01 -26.99,-0.01 -0.01,-17.99 -0.02,-35.98 0.01,-53.97 m 2.01,2.01 c -0.22,16.6 -0.06,33.21 0.13,49.81 12.69,-0.04 25.54,0.97 38.07,-1.59 6.2,-1.51 12.7,-4.16 16.39,-9.66 4.42,-6.47 4.21,-14.84 3.08,-22.26 -1.51,-7.6 -8.47,-12.54 -15.5,-14.6 -7.23,-1.93 -14.77,-2 -22.2,-1.86 -6.66,0.11 -13.32,-0.22 -19.97,0.16 z"
         id="path3000" />
    </g>
    <g
       id="#fbfbfbff"
       transform="matrix(1.25,0,0,1.25,429.19642,164.41575)"
       style="stroke:#ffffff;stroke-width:1.6">
      <path
         style="fill:url(#linearGradient3828);fill-opacity:1;stroke:#ffffff;stroke-width:2.4"
         inkscape:connector-curvature="0"
         d="m 134.01,100.01 c 32.66,-0.07 65.33,0.01 97.99,-0.04 15.94,0.14 32.51,3.73 45.29,13.74 10.87,8.54 16.21,22.69 15.75,36.29 0.39,12.55 -4.05,25.2 -12.4,34.61 -4.78,5.6 -11.17,9.44 -17.74,12.58 2.5,1.52 5.52,1.72 8.23,2.71 13.09,4.22 25.34,12.96 31.43,25.56 5.35,10.97 5.61,23.6 4.38,35.5 -2.11,17.41 -12.79,33.19 -27.61,42.38 -15.58,10.61 -34.87,13.45 -53.33,13.66 -30.66,-0.01 -61.32,0.02 -91.98,-0.02 -0.03,-72.32 -0.03,-144.65 -0.01,-216.97 m 54.03,39.8 c -0.07,15.1 -0.06,30.2 0,45.3 9.01,0.04 18.03,0.19 27.03,-0.14 8.04,-0.8 17.03,-4.51 20.29,-12.47 3.2,-8.37 2.7,-18.66 -3.03,-25.85 -4.45,-5.29 -11.77,-6.78 -18.37,-6.89 -8.64,-0.07 -17.28,-0.15 -25.92,0.05 m -0.02,83.21 c -0.03,17.99 -0.02,35.98 -0.01,53.97 9,0.02 17.99,0 26.99,0.01 8.88,0.1 18.03,-1.55 25.67,-6.28 6.89,-4.36 10.2,-12.77 10.13,-20.68 0.19,-6.42 -1.02,-13.4 -5.62,-18.21 -5.93,-6.21 -14.77,-8.52 -23.11,-8.73 -11.35,-0.22 -22.7,-0.06 -34.05,-0.08 z"
         id="path3003" />
    </g>
  </g>
</svg>
