<svg xmlns="http://www.w3.org/2000/svg" width="32" height="32" data-tags="paperclip,attachment"><path d="M12.951 27.977a5.34 5.34 0 00-.075.076c-2.508 2.399-6.497 2.446-8.916.096-2.566-2.415-2.617-5.913.044-8.604.021-.021.038-.043.059-.064l.073-.071L20.791 3.222c1.526-1.452 3.946-1.478 5.414-.051.883 1.258 1.439 3.789-.049 5.261l-.137.134-1.563 1.517-1.434 1.395L9.521 24.583l-.038-.047-.035.039-.069.076c-.006.004-.013.008-.018.014-.558.504-1.419.508-1.946-.004-.522-.508-.521-1.252-.001-1.806.017-.016.027-.035.044-.051l1.514-1.472 11.085-10.771L18.54 9.09 7.455 19.863l-1.346 1.469v.002c-.004.004-.008.006-.013.012l-.034.036c-1.383 1.381-1.574 3.388-.21 4.715 1.365 1.325 3.602 1.22 5.022-.125l.002.002.028-.029a.055.055 0 00.008-.006l.007-.008 15.052-14.376 1.561-1.519.139-.133-.002-.002c2.356-2.323 1.237-6.674.098-8.248-2.318-2.252-6.134-2.197-8.523.126-.035.033-.064.07-.098.105l-.004-.003-16.52 16.058c-.013.014-.027.023-.041.037-.023.021-.044.049-.067.072l-.024.023.001.002c-3.277 3.282-3.331 8.443-.092 11.594 3.271 3.179 8.658 3.099 12.03-.178l.038-.041.004.004L32 12.417l-1.516-1.473-17.533 17.033z" fill="#444"/></svg>