<svg xmlns="http://www.w3.org/2000/svg" xmlns:xlink="http://www.w3.org/1999/xlink" width="518.75" height="518.75" id="svg2" version="1.1"><defs id="defs4"><linearGradient id="linearGradient3848"><stop offset="0" id="stop3850" stop-color="#6186ab" stop-opacity="1"/><stop offset="1" id="stop3852" stop-color="#3d668f" stop-opacity="1"/></linearGradient><linearGradient id="linearGradient3822"><stop offset="0" id="stop3824" stop-color="#fbfbfb" stop-opacity="1"/><stop offset="1" id="stop3826" stop-color="#ccc" stop-opacity="1"/></linearGradient><linearGradient xlink:href="#linearGradient3822" id="linearGradient3828" x1="209.113" y1="99.158" x2="208.632" y2="317.07" gradientUnits="userSpaceOnUse"/><linearGradient xlink:href="#linearGradient3848" id="linearGradient3854" x1="207.5" y1=".744" x2="206.756" y2="415.744" gradientUnits="userSpaceOnUse"/></defs><g id="layer1" transform="scale(1.25)"><g id="#446a94ff" fill="url(#linearGradient3854)" fill-opacity="1"><path d="M56.65 0h295.8c17.73.39 35.15 8.39 46.76 21.83 9.29 10.4 14.69 23.91 15.79 37.76v295.79c-1.49 18.58-11.1 36.4-26.31 47.29-8.86 6.73-19.59 10.15-30.36 12.33H56.69c-6.9-1.7-13.99-3.04-20.35-6.35-13.7-6.53-24.84-18.12-30.95-32C2.3 369.96.94 362.64 0 355.38V59.6c1.34-17.88 10.27-35.11 24.57-46.03C33.76 6.11 45.16 2.19 56.65 0m75.96 98.6c-.67 12.11-.08 24.27-.28 36.4.09 60.33-.49 120.67-.48 181-.41 2.45 2.07 3.48 4.11 3.22 29.34.01 58.69 0 88.04-.01 17.09.53 34.78-1.91 50.04-10.03 5.64-2.82 10.68-6.67 15.65-10.52 13.14-11.64 20.26-29.23 20.36-46.66.07-13.83-3.3-28.6-13.36-38.69-7.32-8.18-17.41-13.12-27.69-16.48 2.03-1.63 4.23-3.01 6.36-4.5 12.26-9.42 20.1-24.76 19.34-40.34-.1-5.52.52-11.2-1.33-16.52-2.05-6.28-4.31-12.93-9.29-17.55-3.04-2.94-5.85-6.19-9.43-8.5-12.94-8.12-28.46-11.65-43.65-11.09-31.35-.01-62.7.04-94.05-.04-1.45.06-2.9.2-4.34.31z" id="path2989"/><path d="M189.88 141.88c7.36-.51 14.74-.04 22.11-.26 6.51-.16 13.85.89 18.51 5.89 5.94 6.94 6.2 17.29 2.43 25.33-4.32 8.08-14.47 10.28-22.92 10.49-6.69-.14-13.4.22-20.08-.26-.44-13.71-.4-27.47-.05-41.19z" id="path2991" stroke="#446a94" stroke-opacity="1"/><path d="M190.03 225.03c6.65-.38 13.31-.05 19.97-.16 7.43-.14 14.97-.07 22.2 1.86 7.03 2.06 13.99 7 15.5 14.6 1.13 7.42 1.34 15.79-3.08 22.26-3.69 5.5-10.19 8.15-16.39 9.66-12.53 2.56-25.38 1.55-38.07 1.59-.19-16.6-.35-33.21-.13-49.81z" id="path2993" stroke="#446a94" stroke-opacity="1"/></g><g id="#3a6087ff" fill="#3a6087" stroke="#3a6087" stroke-opacity="1" stroke-width="3.2"><path d="M132.61 98.6c1.44-.11 2.89-.25 4.34-.31 31.35.08 62.7.03 94.05.04 15.19-.56 30.71 2.97 43.65 11.09 3.58 2.31 6.39 5.56 9.43 8.5 4.98 4.62 7.24 11.27 9.29 17.55 1.85 5.32 1.23 11 1.33 16.52.76 15.58-7.08 30.92-19.34 40.34-2.13 1.49-4.33 2.87-6.36 4.5 10.28 3.36 20.37 8.3 27.69 16.48 10.06 10.09 13.43 24.86 13.36 38.69-.1 17.43-7.22 35.02-20.36 46.66-4.97 3.85-10.01 7.7-15.65 10.52-15.26 8.12-32.95 10.56-50.04 10.03-29.35.01-58.7.02-88.04.01-2.04.26-4.52-.77-4.11-3.22-.01-60.33.57-120.67.48-181 .2-12.13-.39-24.29.28-36.4m1.4 1.41c-.02 72.32-.02 144.65.01 216.97 30.66.04 61.32.01 91.98.02 18.46-.21 37.75-3.05 53.33-13.66 14.82-9.19 25.5-24.97 27.61-42.38 1.23-11.9.97-24.53-4.38-35.5-6.09-12.6-18.34-21.34-31.43-25.56-2.71-.99-5.73-1.19-8.23-2.71 6.57-3.14 12.96-6.98 17.74-12.58 8.35-9.41 12.79-22.06 12.4-34.61.46-13.6-4.88-27.75-15.75-36.29-12.78-10.01-29.35-13.6-45.29-13.74-32.66.05-65.33-.03-97.99.04z" id="path2996"/><path d="M188.04 139.81c8.64-.2 17.28-.12 25.92-.05 6.6.11 13.92 1.6 18.37 6.89 5.73 7.19 6.23 17.48 3.03 25.85-3.26 7.96-12.25 11.67-20.29 12.47-9 .33-18.02.18-27.03.14-.06-15.1-.07-30.2 0-45.3m1.84 2.07c-.35 13.72-.39 27.48.05 41.19 6.68.48 13.39.12 20.08.26 8.45-.21 18.6-2.41 22.92-10.49 3.77-8.04 3.51-18.39-2.43-25.33-4.66-5-12-6.05-18.51-5.89-7.37.22-14.75-.25-22.11.26z" id="path2998"/><path d="M188.02 223.02c11.35.02 22.7-.14 34.05.08 8.34.21 17.18 2.52 23.11 8.73 4.6 4.81 5.81 11.79 5.62 18.21.07 7.91-3.24 16.32-10.13 20.68-7.64 4.73-16.79 6.38-25.67 6.28-9-.01-17.99.01-26.99-.01-.01-17.99-.02-35.98.01-53.97m2.01 2.01c-.22 16.6-.06 33.21.13 49.81 12.69-.04 25.54.97 38.07-1.59 6.2-1.51 12.7-4.16 16.39-9.66 4.42-6.47 4.21-14.84 3.08-22.26-1.51-7.6-8.47-12.54-15.5-14.6-7.23-1.93-14.77-2-22.2-1.86-6.66.11-13.32-.22-19.97.16z" id="path3000"/></g><g id="#fbfbfbff" stroke="#fff" stroke-width="1.6"><path d="M134.01 100.01c32.66-.07 65.33.01 97.99-.04 15.94.14 32.51 3.73 45.29 13.74 10.87 8.54 16.21 22.69 15.75 36.29.39 12.55-4.05 25.2-12.4 34.61-4.78 5.6-11.17 9.44-17.74 12.58 2.5 1.52 5.52 1.72 8.23 2.71 13.09 4.22 25.34 12.96 31.43 25.56 5.35 10.97 5.61 23.6 4.38 35.5-2.11 17.41-12.79 33.19-27.61 42.38-15.58 10.61-34.87 13.45-53.33 13.66-30.66-.01-61.32.02-91.98-.02-.03-72.32-.03-144.65-.01-216.97m54.03 39.8c-.07 15.1-.06 30.2 0 45.3 9.01.04 18.03.19 27.03-.14 8.04-.8 17.03-4.51 20.29-12.47 3.2-8.37 2.7-18.66-3.03-25.85-4.45-5.29-11.77-6.78-18.37-6.89-8.64-.07-17.28-.15-25.92.05m-.02 83.21c-.03 17.99-.02 35.98-.01 53.97 9 .02 17.99 0 26.99.01 8.88.1 18.03-1.55 25.67-6.28 6.89-4.36 10.2-12.77 10.13-20.68.19-6.42-1.02-13.4-5.62-18.21-5.93-6.21-14.77-8.52-23.11-8.73-11.35-.22-22.7-.06-34.05-.08z" id="path3003" fill="url(#linearGradient3828)" fill-opacity="1" stroke="#fff" stroke-width="2.4"/></g></g></svg>