<?xml version="1.0" encoding="utf-8"?><!DOCTYPE svg PUBLIC "-//W3C//DTD SVG 1.1//EN" "http://www.w3.org/Graphics/SVG/1.1/DTD/svg11.dtd"><svg version="1.1" xmlns="http://www.w3.org/2000/svg" xmlns:xlink="http://www.w3.org/1999/xlink" width="32" height="32" viewBox="0 0 32 32" data-tags="paperclip,attachment"><g fill="#444" transform="scale(0.03125 0.03125)"><path d="M414.432 895.264c-0.8 0.8-1.632 1.632-2.4 2.432-80.256 76.768-207.904 78.272-285.312 3.072-82.112-77.28-83.744-189.216 1.408-275.328 0.672-0.672 1.216-1.376 1.888-2.048 0.8-0.736 1.568-1.536 2.336-2.272l532.96-518.016c48.832-46.464 126.272-47.296 173.248-1.632 28.256 40.256 46.048 121.248-1.568 168.352l-4.384 4.288-50.016 48.544-45.888 44.64-432.032 419.36-1.216-1.504-1.12 1.248-2.208 2.432c-0.192 0.128-0.416 0.256-0.576 0.448-17.856 16.128-45.408 16.256-62.272-0.128-16.704-16.256-16.672-40.064-0.032-57.792 0.544-0.512 0.864-1.12 1.408-1.632l48.448-47.104 354.72-344.672-48.544-47.072-354.72 344.736-43.072 47.008v0.064c-0.128 0.128-0.256 0.192-0.416 0.384-0.384 0.384-0.704 0.736-1.088 1.152-44.256 44.192-50.368 108.416-6.72 150.88 43.68 42.4 115.264 39.040 160.704-4l0.064 0.064 0.896-0.928c0.096-0.064 0.192-0.128 0.256-0.192 0.096-0.064 0.16-0.192 0.224-0.256l481.664-460.032 49.952-48.608 4.448-4.256-0.064-0.064c75.392-74.336 39.584-213.568 3.136-263.936-74.176-72.064-196.288-70.304-272.736 4.032-1.12 1.056-2.048 2.24-3.136 3.36l-0.128-0.096-528.64 513.856c-0.416 0.448-0.864 0.736-1.312 1.184-0.736 0.672-1.408 1.568-2.144 2.304l-0.768 0.736 0.032 0.064c-104.864 105.024-106.592 270.176-2.944 371.008 104.672 101.728 277.056 99.168 384.96-5.696 0.448-0.448 0.768-0.864 1.216-1.312l0.128 0.128 560.928-545.12-48.512-47.136-561.056 545.056z" /></g></svg>