<?xml version="1.0" encoding="utf-8"?><!DOCTYPE svg PUBLIC "-//W3C//DTD SVG 1.1//EN" "http://www.w3.org/Graphics/SVG/1.1/DTD/svg11.dtd"><svg version="1.1" xmlns="http://www.w3.org/2000/svg" xmlns:xlink="http://www.w3.org/1999/xlink" width="24" height="24" viewBox="0 0 24 24" data-tags="pencil"><g fill="#444" transform="scale(0.0234375 0.0234375)"><path d="M896 293.504l-165.504-165.504c-12.501-12.501-28.928-18.731-45.269-18.731-16.384 0-32.725 6.229-45.227 18.731l-466.731 466.731c-12.501 12.501-23.808 31.019-32 50.688-8.192 19.755-13.269 40.917-13.269 58.581v192h192c17.664 0 38.741-5.077 58.496-13.269 19.755-8.192 38.229-19.499 50.731-32l466.773-466.731c12.501-12.501 18.731-28.928 18.731-45.269 0-16.384-6.229-32.725-18.731-45.227zM246.101 642.603l353.835-353.835 52.565 52.565-353.835 353.835-52.565-52.565zM320 810.667h-64l-42.667-42.667v-64c0-3.285 1.408-13.013 6.741-25.813 0.427-0.853 126.592 125.355 126.592 125.355-13.739 5.717-23.381 7.125-26.667 7.125zM381.397 777.899l-52.565-52.565 353.835-353.835 52.565 52.565-353.835 353.835zM765.397 393.899l-135.339-135.339 55.168-55.168 135.253 135.339-55.083 55.168z" /></g></svg>