<?xml version="1.0" standalone="no"?>
  <!DOCTYPE svg PUBLIC "-//W3C//DTD SVG 1.1//EN" "http://www.w3.org/Graphics/SVG/1.1/DTD/svg11.dtd" >
  <svg>
  <metadata>
  Created by font-carrier
  </metadata>
  <defs>
  <font id="AFuturaRoundBold" horiz-adv-x="1209" vert-adv-y="1209" >
    <font-face
      
      font-family="a_FuturaRound"
      
      font-weight="400"
      
      font-stretch="normal"
      
      units-per-em="1000"
      
      ascent="959"
      
      descent="-242"
      
    />
      <missing-glyph />

      

      
      <glyph glyph-name="uni21" unicode="&#x21;" d="M63 69Q63 106 89 132Q115 158 152 158Q189 158 215 132Q241 106 241 69Q241 32 215 5Q189-22 152-22Q115-22 89 5Q63 32 63 69M232 332Q232 214 152 214Q72 214 72 332L72 633Q72 751 152 751Q232 751 232 633L232 332Z"  horiz-adv-x="304" vert-adv-y="1000"  />

      
      <glyph glyph-name="uni22" unicode="&#x22;" d="M203 677Q203 696 217.50 708.50Q232 721 252 721Q272 721 286 709Q300 697 300 677L300 485Q300 440 252 440Q232 440 217.50 452.50Q203 465 203 485L203 677M40 677Q40 697 54 709Q68 721 88 721Q137 721 137 677L137 485Q137 440 88 440Q40 440 40 485L40 677Z"  horiz-adv-x="340" vert-adv-y="1000"  />

      
      <glyph glyph-name="uni23" unicode="&#x23;" d="M589 396L567 299Q632 299 645 296Q686 285 686 240Q686 182 609 182L541 182L516 71Q498-10 443-10Q372-10 372 62Q372 87 394 182L266 182L241 71Q223-10 167-10Q96-10 96 62Q96 87 118 182Q56 182 41 186Q0 196 0 240Q0 299 78 299L144 299L167 396L105 396Q28 396 28 455Q28 512 106 512L193 512L224 655Q241 735 295 735Q324 735 345 723Q372 708 372 682Q372 662 364 626L339 512L469 512L501 655Q519 735 571 735Q599 735 620 723Q646 708 646 682Q646 655 640 626L616 512Q680 512 693 509Q735 498 735 455Q735 396 658 396L589 396M443 396L313 396L292 299L421 299L443 396Z"  horiz-adv-x="735" vert-adv-y="1000"  />

      
      <glyph glyph-name="uni24" unicode="&#x24;" d="M259-20Q156-10 102 24Q48 58 48 98Q48 134 71 153Q94 172 130 172Q151 172 208 154Q265 136 308 136Q341 136 365.50 156.50Q390 177 390 210Q390 254 356 274Q326 292 263 311Q164 341 118 378Q56 430 56 518Q56 607 114 669Q169 727 259 745L259 797Q259 852 300 852Q326 852 334 836Q341 825 341 797L341 749Q408 744 454 724Q521 695 521 642Q521 571 446 571Q423 571 380.50 584Q338 597 315 597Q283 597 260 582Q234 565 234 534Q234 514 243 502Q255 485 300 469Q334 459 367 448Q568 380 568 226Q568 128 504 62Q440-4 341-16L341-84Q341-141 300-141Q259-141 259-84L259-20Z"  horiz-adv-x="616" vert-adv-y="1000"  />

      
      <glyph glyph-name="uni25" unicode="&#x25;" d="M10 576Q10 642 55.50 690.50Q101 739 167 739Q234 739 279 691.50Q324 644 324 576Q324 509 279 461Q234 413 167 413Q101 413 55.50 461Q10 509 10 576M115 576Q115 555 130.50 538.50Q146 522 167 522Q189 522 205 538Q221 554 221 576Q221 599 205.50 614.50Q190 630 167 630Q145 630 130 614Q115 598 115 576M393 154Q393 220 438.50 268.50Q484 317 550 317Q617 317 662 269.50Q707 222 707 154Q707 87 662 39Q617-9 550-9Q484-9 438.50 39Q393 87 393 154M498 154Q498 133 513.50 116.50Q529 100 550 100Q573 100 588 115.50Q603 131 603 154Q603 178 588.50 193Q574 208 550 208Q528 208 513 192Q498 176 498 154M174-17Q149-17 132 0Q115 17 115 42Q115 66 140 110L470 687Q503 744 542 744Q603 744 603 693Q603 667 583 632L245 41Q212-17 174-17Z"  horiz-adv-x="718" vert-adv-y="1000"  />

      
      <glyph glyph-name="uni26" unicode="&#x26;" d="M496 61Q405-22 265-22Q164-22 94 40Q21 104 21 204Q21 347 189 429Q119 504 119 579Q119 661 186 708Q246 751 331 751Q417 751 477 706Q542 656 542 572Q542 460 418 385L517 267Q557 315 583.50 340.50Q610 366 637 366Q664 366 681.50 345.50Q699 325 699 297Q699 251 607 163Q640 124 648 113Q670 80 670 54Q670 25 650 5Q630-15 601-15Q562-15 496 61M411 167L276 321Q186 280 186 207Q186 164 213.50 138Q241 112 284 112Q349 112 411 167M329 484Q410 517 410 572Q410 598 387.50 616.50Q365 635 338 635Q312 635 291.50 617.50Q271 600 271 575Q271 536 329 484Z"  horiz-adv-x="703" vert-adv-y="1000"  />

      
      <glyph glyph-name="uni27" unicode="&#x27;" d="M40 677Q40 697 54 709Q68 721 88 721Q137 721 137 677L137 485Q137 440 88 440Q40 440 40 485L40 677Z"  horiz-adv-x="177" vert-adv-y="1000"  />

      
      <glyph glyph-name="uni28" unicode="&#x28;" d="M212 334Q212 209 249 76Q260 42 270 7Q285-41 285-59Q285-122 222-122Q175-122 144-49Q72 123 72 334Q72 431 89 524Q122 704 174 766Q194 790 222 790Q285 790 285 726Q285 708 270 660Q260 626 249 592Q212 459 212 334Z"  horiz-adv-x="333" vert-adv-y="1000"  />

      
      <glyph glyph-name="uni29" unicode="&#x29;" d="M121 334Q121 463 84 592Q73 626 62 661Q47 712 47 726Q47 790 111 790Q157 790 188.50 717Q220 644 240.50 543Q261 442 261 334Q261 237 244 145Q210-37 159-98Q139-122 111-122Q47-122 47-59Q47-43 62 7Q73 42 84 77Q121 206 121 334Z"  horiz-adv-x="333" vert-adv-y="1000"  />

      
      <glyph glyph-name="uni2a" unicode="&#x2a;" d="M268 486Q247 469 227 451Q201 432 179 432Q160 432 145.50 448.50Q131 465 131 484Q131 529 229 554Q131 583 131 625Q131 644 145.50 660.50Q160 677 179 677Q202 677 227 658Q247 641 268 624Q267 633 262 660Q258 682 258 695Q258 751 308 751Q359 751 359 696Q359 682 354 660Q349 634 348 624Q369 641 389 658Q415 677 437 677Q457 677 471 661Q485 645 485 625Q485 583 387 554Q485 528 485 484Q485 464 471 448Q457 432 437 432Q417 432 390 452Q369 469 348 486Q349 476 354 450Q359 428 359 414Q359 358 308 358Q258 358 258 414Q258 427 262 450Q267 477 268 486Z"  horiz-adv-x="616" vert-adv-y="1000"  />

      
      <glyph glyph-name="uni2b" unicode="&#x2b;" d="M377 356L377 568Q377 612 427 612Q478 612 478 568L478 356L684 356Q728 356 728 306Q728 257 684 257L478 257L478 44Q478 0 427 0Q377 0 377 44L377 257L171 257Q127 257 127 306Q127 356 171 356L377 356Z"  horiz-adv-x="855" vert-adv-y="1000"  />

      
      <glyph glyph-name="uni2c" unicode="&#x2c;" d="M32-154Q5-154-15.50-135Q-36-116-36-89Q-36-67-20-38L62 110Q93 166 133 166Q162 166 181.50 148.50Q201 131 201 103Q201 79 185 50L104-98Q73-154 32-154Z"  horiz-adv-x="237" vert-adv-y="1000"  />

      
      <glyph glyph-name="uni2d" unicode="&#x2d;" d="M115 215Q35 215 35 285Q35 355 116 355L324 355Q405 355 405 284Q405 215 323 215L115 215Z"  horiz-adv-x="439" vert-adv-y="1000"  />

      
      <glyph glyph-name="uni2010" unicode="&#x2010;" d="M115 215Q35 215 35 285Q35 355 116 355L324 355Q405 355 405 284Q405 215 323 215L115 215Z"  horiz-adv-x="439" vert-adv-y="1000"  />

      
      <glyph glyph-name="uni2e" unicode="&#x2e;" d="M26 86Q26 125 53 152.50Q80 180 119 180Q159 180 185.50 153Q212 126 212 86Q212 47 185 20Q158-7 119-7Q80-7 53 20Q26 47 26 86Z"  horiz-adv-x="237" vert-adv-y="1000"  />

      
      <glyph glyph-name="uni2f" unicode="&#x2f;" d="M22-24Q-6-24-26-5.50Q-46 13-46 41Q-46 64-32 90L287 693Q319 753 359 753Q387 753 407 735Q427 717 427 689Q427 667 412 639L93 36Q61-24 22-24Z"  horiz-adv-x="380" vert-adv-y="1000"  />

      
      <glyph glyph-name="uni30" unicode="&#x30;" d="M21 364Q21 526 81 627Q155 751 307 751Q460 751 534 628Q595 527 595 364Q595 201 534 101Q460-22 307-22Q156-22 82 101Q21 202 21 364M308 598Q237 598 206 512Q185 453 185 366Q185 278 206 219Q236 132 308 132Q380 132 410 219Q431 278 431 366Q431 598 308 598Z"  horiz-adv-x="616" vert-adv-y="1000"  />

      
      <glyph glyph-name="uni31" unicode="&#x31;" d="M399 154L485 154Q559 154 559 77Q559 0 485 0L139 0Q65 0 65 77Q65 154 139 154L231 154L231 583Q169 583 153 588Q113 599 113 645Q113 669 135 688Q195 739 330 739Q355 739 366 736Q391 729 397 682Q399 670 399 612L399 154Z"  horiz-adv-x="616" vert-adv-y="1000"  />

      
      <glyph glyph-name="uni32" unicode="&#x32;" d="M563 77Q563 0 445 0L150 0Q50 0 50 77Q50 108 86 149Q146 215 205 281Q277 361 320 418Q368 482 368 526Q368 556 351.50 575.50Q335 595 305 595Q274 595 252 569Q239 552 222 511.50Q205 471 194 457Q177 436 145 436Q108 436 85.50 460.50Q63 485 63 522Q63 551 76 588Q101 661 166.50 706Q232 751 310 751Q411 751 476 694Q544 634 544 534Q544 444 453 326Q407 268 292 154L445 154Q563 154 563 77Z"  horiz-adv-x="616" vert-adv-y="1000"  />

      
      <glyph glyph-name="uni33" unicode="&#x33;" d="M439 401Q561 339 561 215Q561 110 482 42Q407-22 300-22Q206-22 130 31Q46 90 46 181Q46 210 68 235Q90 260 119 260Q151 260 178 227Q201 197 225 166Q257 133 302 133Q341 133 365.50 160.50Q390 188 390 227Q390 272 357 292Q337 304 284 313Q215 325 215 387Q215 421 233 438Q248 452 284 460Q361 478 361 535Q361 598 301 598Q258 598 227 574Q225 573 184 530Q161 506 137 506Q108 506 88 526.50Q68 547 68 576Q68 606 87 638Q117 690 181 721Q241 751 304 751Q393 751 458 695Q523 639 523 551Q523 462 439 401Z"  horiz-adv-x="616" vert-adv-y="1000"  />

      
      <glyph glyph-name="uni34" unicode="&#x34;" d="M496 164L496 80Q496-9 415-9Q344-9 344 85L344 164L127 164Q83 164 53 187.50Q23 211 23 254Q23 312 73 392L242 661Q292 740 366 740Q434 740 468 687Q496 643 496 572L496 305Q576 305 576 234Q576 164 496 164M172 305L344 305L344 583L172 305Z"  horiz-adv-x="616" vert-adv-y="1000"  />

      
      <glyph glyph-name="uni35" unicode="&#x35;" d="M270 489Q309 498 341 498Q440 498 502 425Q561 356 561 256Q561 136 482.50 57Q404-22 284-22Q237-22 193-9Q139 7 100 38Q51 76 51 124Q51 155 70.50 176.50Q90 198 120 198Q143 198 193.50 167Q244 136 282 136Q327 136 356.50 168.50Q386 201 386 246Q386 292 362.50 320.50Q339 349 294 349Q271 349 232 336Q193 323 171 323Q107 323 107 395Q107 412 112 452L136 642Q143 696 167 714Q188 730 244 730L447 730Q553 730 553 653Q553 577 453 577L281 577L270 489Z"  horiz-adv-x="616" vert-adv-y="1000"  />

      
      <glyph glyph-name="uni36" unicode="&#x36;" d="M306 466Q350 471 364 471Q456 471 516 398Q573 330 573 236Q573 125 493 51.50Q413-22 300-22Q187-22 115 53Q43 128 43 242Q43 399 214 613Q326 753 378 753Q410 753 434 730.50Q458 708 458 676Q458 649 420 603Q391 571 362.50 539Q334 507 306 466M213 234Q213 194 240 163Q267 132 307 132Q347 132 374 163Q401 194 401 234Q401 275 374.50 304.50Q348 334 307 334Q266 334 239.50 304.50Q213 275 213 234Z"  horiz-adv-x="616" vert-adv-y="1000"  />

      
      <glyph glyph-name="uni37" unicode="&#x37;" d="M376 577L150 577Q50 577 50 654Q50 730 150 730L448 730Q569 730 569 639Q569 614 552 577L311 56Q275-22 224-22Q189-22 163.50 1.50Q138 25 138 60Q138 87 160 132L376 577Z"  horiz-adv-x="616" vert-adv-y="1000"  />

      
      <glyph glyph-name="uni38" unicode="&#x38;" d="M141 399Q74 458 74 545Q74 637 146 696Q214 751 308 751Q403 751 470 697Q542 638 542 545Q542 457 475 399Q573 336 573 217Q573 110 493 42Q417-22 308-22Q199-22 123 42Q43 110 43 217Q43 337 141 399M209 232Q209 191 238 159Q267 127 308 127Q351 127 379 158Q407 189 407 232Q407 276 379 307Q351 338 308 338Q266 338 237.50 306.50Q209 275 209 232M233 530Q233 500 255.50 476.50Q278 453 308 453Q340 453 362 475.50Q384 498 384 530Q384 562 362 585Q340 608 308 608Q276 608 254.50 585Q233 562 233 530Z"  horiz-adv-x="616" vert-adv-y="1000"  />

      
      <glyph glyph-name="uni39" unicode="&#x39;" d="M403 497Q403 538 376 568Q349 598 309 598Q269 598 242 568Q215 538 215 497Q215 456 242 426Q269 396 309 396Q349 396 376 426Q403 456 403 497M310 265Q262 260 257 260Q164 260 103 330Q43 397 43 491Q43 604 122.50 678Q202 752 316 752Q430 752 501 678Q572 604 572 489Q572 331 401 117Q289-23 238-23Q207-23 182.50 0.50Q158 24 158 55Q158 84 206 138Q243 178 310 265Z"  horiz-adv-x="616" vert-adv-y="1000"  />

      
      <glyph glyph-name="uni3a" unicode="&#x3a;" d="M26 86Q26 125 53 152.50Q80 180 119 180Q159 180 185.50 153Q212 126 212 86Q212 47 185 20Q158-7 119-7Q80-7 53 20Q26 47 26 86M26 397Q26 435 53.50 462.50Q81 490 119 490Q158 490 185 463Q212 436 212 397Q212 358 185 331Q158 304 119 304Q80 304 53 331Q26 358 26 397Z"  horiz-adv-x="237" vert-adv-y="1000"  />

      
      <glyph glyph-name="uni3b" unicode="&#x3b;" d="M26 397Q26 435 53.50 462.50Q81 490 119 490Q158 490 185 463Q212 436 212 397Q212 358 185 331Q158 304 119 304Q80 304 53 331Q26 358 26 397M32-154Q5-154-15.50-135Q-36-116-36-89Q-36-67-20-38L62 110Q93 166 133 166Q162 166 181.50 148.50Q201 131 201 103Q201 79 185 50L104-98Q73-154 32-154Z"  horiz-adv-x="237" vert-adv-y="1000"  />

      
      <glyph glyph-name="uni3c" unicode="&#x3c;" d="M261 308L261 304L675 136Q694 128 699 117.50Q704 107 704 83Q704 40 660 40Q640 40 618 49L177 231Q114 257 114 306Q114 356 177 382L618 563Q642 573 663 573Q704 573 704 531Q704 488 675 476L261 308Z"  horiz-adv-x="855" vert-adv-y="1000"  />

      
      <glyph glyph-name="uni3d" unicode="&#x3d;" d="M127 414Q127 434 140.50 449Q154 464 174 464L682 464Q702 464 715 449Q728 434 728 414Q728 394 715 379Q702 364 682 364L174 364Q154 364 140.50 379Q127 394 127 414M127 198Q127 219 140.50 233.50Q154 248 174 248L682 248Q703 248 715.50 233.50Q728 219 728 198Q728 177 715.50 163Q703 149 682 149L174 149Q154 149 140.50 163.50Q127 178 127 198Z"  horiz-adv-x="855" vert-adv-y="1000"  />

      
      <glyph glyph-name="uni3e" unicode="&#x3e;" d="M594 304L594 308L181 476Q151 488 151 531Q151 573 192 573Q213 573 237 563L679 382Q712 369 724 355Q741 337 741 306Q741 275 724 258Q711 244 679 231L237 49Q215 40 195 40Q151 40 151 83Q151 124 181 136L594 304Z"  horiz-adv-x="855" vert-adv-y="1000"  />

      
      <glyph glyph-name="uni3f" unicode="&#x3f;" d="M147 69Q147 106 173.50 132Q200 158 237 158Q274 158 300 132Q326 106 326 69Q326 32 300 5Q274-22 237-22Q200-22 173.50 5Q147 32 147 69M158 293L158 357Q158 385 166 400Q176 419 218 431Q272 446 287 456Q321 478 321 526Q321 556 300.50 574.50Q280 593 249 593Q201 593 152 541Q103 489 72 489Q42 489 23.50 511.50Q5 534 5 564Q5 620 52 667Q92 707 151 730Q196 747 249 747Q352 747 423 685Q496 620 496 518Q496 434 447.50 376Q399 318 316 303Q316 199 236 199Q158 199 158 293Z"  horiz-adv-x="523" vert-adv-y="1000"  />

      
      <glyph glyph-name="uni40" unicode="&#x40;" d="M510 511Q577 511 621 478Q638 511 672 511Q694 511 709 497.50Q724 484 724 462L724 222Q724 147 782 147Q845 147 868 202Q889 253 889 364Q889 516 777 592Q681 656 521 656Q341 656 241 563Q138 467 138 289Q138 112 240 18Q339-74 518-74Q601-74 682-49Q705-41 727-33Q755-24 774-24Q811-24 811-69Q811-99 723-127Q664-145 606-153Q557-160 521-160Q312-160 181-41Q45 82 45 289Q45 497 180 621Q311 742 521 742Q629 742 713 716Q839 677 909 589Q983 497 983 368Q983 68 762 68Q729 68 693 85.50Q657 103 644 130Q582 68 489 68Q403 68 349 137Q299 201 299 289Q299 379 359.50 445Q420 511 510 511M417 289Q417 237 437 202Q462 159 510 159Q613 159 613 294Q613 420 516 420Q464 420 438 379Q417 344 417 289Z"  horiz-adv-x="1027" vert-adv-y="1000"  />

      
      <glyph glyph-name="uni41" unicode="&#x41;" d="M325 740Q414 740 448 644L632 119Q644 85 644 67Q644 33 620 12Q596-9 562-9Q499-9 474 70L447 156L189 156L159 64Q135-9 79-9Q44-9 22 12.50Q0 34 0 69Q0 95 8 117L198 632Q238 740 325 740M320 559L237 303L402 303L322 559L320 559Z"  horiz-adv-x="642" vert-adv-y="1000"  />

      
      <glyph glyph-name="uni42" unicode="&#x42;" d="M178 0Q115 0 90 21.50Q65 43 65 105L65 613Q65 678 90 704Q115 730 180 730L316 730Q415 730 484 689Q568 640 568 548Q568 429 482 387L482 384Q546 364 574 325.50Q602 287 602 220Q602 109 525 51Q457 0 342 0L178 0M231 315L231 143L314 143Q367 143 393 157Q427 176 427 225Q427 282 394 301Q370 315 311 315L231 315M231 588L231 445L303 445Q352 445 372 457Q400 473 400 517Q400 588 303 588L231 588Z"  horiz-adv-x="632" vert-adv-y="1000"  />

      
      <glyph glyph-name="uni43" unicode="&#x43;" d="M376-9Q215-9 119 98Q28 201 28 364Q28 524 122 629Q220 739 378 739Q428 739 465 730Q512 719 547 696Q592 665 592 626Q592 597 572 575.50Q552 554 523 554Q498 554 461 568.50Q424 583 379 583Q292 583 245 512Q204 451 204 360Q204 268 247 211Q295 147 384 147Q423 147 471 165Q519 183 535 183Q563 183 582 161Q601 139 601 111Q601 88 585 66Q530-9 376-9Z"  horiz-adv-x="602" vert-adv-y="1000"  />

      
      <glyph glyph-name="uni44" unicode="&#x44;" d="M313 730Q451 730 531 679Q606 631 647 546Q686 466 686 373Q686 205 593 104Q497 0 330 0L178 0Q115 0 90 21.50Q65 43 65 105L65 613Q65 678 90 704Q115 730 180 730L313 730M231 154L307 154Q505 154 505 374Q505 575 304 575L231 575L231 154Z"  horiz-adv-x="716" vert-adv-y="1000"  />

      
      <glyph glyph-name="uni45" unicode="&#x45;" d="M367 730Q485 730 485 652Q485 575 367 575L231 575L231 445L348 445Q466 445 466 368Q466 291 348 291L231 291L231 154L372 154Q490 154 490 77Q490 0 372 0L178 0Q115 0 90 21.50Q65 43 65 105L65 613Q65 678 90 704Q115 730 180 730L367 730Z"  horiz-adv-x="518" vert-adv-y="1000"  />

      
      <glyph glyph-name="uni46" unicode="&#x46;" d="M367 730Q485 730 485 652Q485 575 367 575L231 575L231 445L348 445Q466 445 466 368Q466 291 348 291L231 291L231 109Q231-9 148-9Q65-9 65 109L65 613Q65 678 90 704Q115 730 180 730L367 730Z"  horiz-adv-x="501" vert-adv-y="1000"  />

      
      <glyph glyph-name="uni47" unicode="&#x47;" d="M468 437L588 437Q647 437 674 412.50Q701 388 701 330Q701 179 610 85Q519-9 369-9Q212-9 118 102Q28 207 28 366Q28 534 124 636.50Q220 739 387 739Q458 739 521 719Q598 694 631 646Q649 620 649 594Q649 564 629 541Q609 518 580 518Q563 518 500.50 551.50Q438 585 382 585Q293 585 245 519Q203 462 203 369Q203 276 244 215Q292 145 381 145Q446 145 485.50 183Q525 221 525 286Q439 286 418 291Q354 305 354 361Q354 437 468 437Z"  horiz-adv-x="722" vert-adv-y="1000"  />

      
      <glyph glyph-name="uni48" unicode="&#x48;" d="M231 295L231 109Q231-9 148-9Q65-9 65 109L65 621Q65 739 148 739Q231 739 231 621L231 449L537 449L537 621Q537 739 620 739Q703 739 703 621L703 109Q703-9 620-9Q537-9 537 109L537 295L231 295Z"  horiz-adv-x="768" vert-adv-y="1000"  />

      
      <glyph glyph-name="uni49" unicode="&#x49;" d="M235 109Q235-9 152-9Q69-9 69 109L69 621Q69 739 152 739Q235 739 235 621L235 109Z"  horiz-adv-x="304" vert-adv-y="1000"  />

      
      <glyph glyph-name="uni4a" unicode="&#x4a;" d="M256 12Q256-56 207-102Q158-148 89-148Q-43-148-43-71Q-43-35-27-17Q-13-2 28.50-0.50Q70 1 79.50 10.50Q89 20 89 55L89 621Q89 739 170 739Q256 739 256 621L256 12Z"  horiz-adv-x="330" vert-adv-y="1000"  />

      
      <glyph glyph-name="uni4b" unicode="&#x4b;" d="M65 109L65 621Q65 739 148 739Q231 739 231 621L231 462L443 680Q500 739 534 739Q566 739 591 716Q616 693 616 661Q616 638 592 610Q591 609 550 568L382 401L605 150Q647 103 647 68Q647 38 623.50 14.50Q600-9 570-9Q530-9 480 49L260 305L231 281L231 109Q231-9 148-9Q65-9 65 109Z"  horiz-adv-x="638" vert-adv-y="1000"  />

      
      <glyph glyph-name="uni4c" unicode="&#x4c;" d="M65 621Q65 739 148 739Q231 739 231 621L231 154L372 154Q490 154 490 77Q490 0 372 0L178 0Q115 0 90 21.50Q65 43 65 105L65 621Z"  horiz-adv-x="473" vert-adv-y="1000"  />

      
      <glyph glyph-name="uni4d" unicode="&#x4d;" d="M447 231L451 231L547 641Q557 684 589.50 711.50Q622 739 666 739Q716 739 752 707Q788 675 796 625L876 127Q882 90 882 71Q882-9 807-9Q763-9 743 25Q729 47 721 98L658 497L656 497L562 128Q547 71 528 46Q500 11 449 11Q398 11 370 46Q351 70 336 128L241 497L239 497L177 98Q169 46 155 24Q134-9 90-9Q15-9 15 71Q15 83 22 127L102 625Q110 675 145.50 707Q181 739 231 739Q276 739 307.50 712Q339 685 350 641L447 231Z"  horiz-adv-x="897" vert-adv-y="1000"  />

      
      <glyph glyph-name="uni4e" unicode="&#x4e;" d="M148-9Q65-9 65 109L65 627Q65 739 142 739Q189 739 230 685L537 279L537 621Q537 739 620 739Q703 739 703 621L703 90Q703-13 627-13Q577-13 532 47L231 445L231 109Q231-9 148-9Z"  horiz-adv-x="768" vert-adv-y="1000"  />

      
      <glyph glyph-name="uni4f" unicode="&#x4f;" d="M30 364Q30 528 122 631Q217 739 379 739Q542 739 637 632Q729 529 729 364Q729 200 637 97Q541-9 379-9Q217-9 122 98Q30 200 30 364M206 362Q206 272 247 213Q293 144 379 144Q465 144 512 212Q553 272 553 362Q553 455 514 515Q467 586 379 586Q291 586 245 515Q206 455 206 362Z"  horiz-adv-x="759" vert-adv-y="1000"  />

      
      <glyph glyph-name="uni50" unicode="&#x50;" d="M231 385L303 385Q417 385 417 482Q417 577 303 577L231 577L231 385M148-9Q65-9 65 109L65 613Q65 678 90 704Q115 730 180 730L330 730Q451 730 522 667Q597 601 597 482Q597 364 529 299Q461 234 343 234L231 234L231 109Q231-9 148-9Z"  horiz-adv-x="622" vert-adv-y="1000"  />

      
      <glyph glyph-name="uni51" unicode="&#x51;" d="M377 739Q540 739 635 632Q727 529 727 364Q727 234 663 135L713 89Q748 57 748 19Q748-10 728-30.50Q708-51 679-51Q648-51 610-21Q608-19 554 32Q486-9 377-9Q215-9 120 98Q28 200 28 364Q28 528 120 631Q215 739 377 739M432 153Q386 195 386 227Q386 255 403.50 274.50Q421 294 448 294Q479 294 529 246Q551 302 551 362Q551 455 512 515Q465 586 377 586Q289 586 243 515Q204 455 204 362Q204 271 245 212Q292 145 379 145Q410 145 432 153Z"  horiz-adv-x="756" vert-adv-y="1000"  />

      
      <glyph glyph-name="uni52" unicode="&#x52;" d="M231 399L308 399Q414 399 414 490Q414 577 310 577L231 577L231 399M231 289L231 109Q231-9 148-9Q65-9 65 109L65 613Q65 678 90 704Q115 730 180 730L309 730Q429 730 503 678Q587 618 587 502Q587 421 540.50 369.50Q494 318 413 305L544 159Q593 104 593 64Q593 30 570.50 8Q548-14 514-14Q472-14 425 45L231 289Z"  horiz-adv-x="613" vert-adv-y="1000"  />

      
      <glyph glyph-name="uni53" unicode="&#x53;" d="M531 229Q531 116 447 51Q371-9 255-9Q195-9 140 7Q72 26 42 63Q25 84 25 105Q25 139 48 158Q71 177 105 177Q123 177 181 160Q243 142 278 142Q312 142 335.50 161.50Q359 181 359 214Q359 257 326 276Q297 293 234 312Q138 341 94 378Q33 428 33 514Q33 619 111 681Q184 739 291 739Q381 739 433.50 708Q486 677 486 635Q486 566 412 566Q390 566 350.50 578.50Q311 591 286 591Q254 591 232 577Q207 561 207 530Q207 512 216 499Q228 482 271 466Q303 456 335 446Q428 414 473 371Q531 316 531 229Z"  horiz-adv-x="552" vert-adv-y="1000"  />

      
      <glyph glyph-name="uni54" unicode="&#x54;" d="M159 575Q69 575 47 580Q-21 594-21 652Q-21 730 98 730L387 730Q505 730 505 652Q505 594 437 580Q415 575 325 575L325 109Q325-9 242-9Q159-9 159 109L159 575Z"  horiz-adv-x="485" vert-adv-y="1000"  />

      
      <glyph glyph-name="uni55" unicode="&#x55;" d="M65 326L65 621Q65 739 148 739Q231 739 231 621L231 345Q231 151 378 151Q525 151 525 345L525 621Q525 739 608 739Q691 739 691 621L691 326Q691 172 612 84Q530-9 378-9Q226-9 144 84Q65 172 65 326Z"  horiz-adv-x="756" vert-adv-y="1000"  />

      
      <glyph glyph-name="uni56" unicode="&#x56;" d="M-13 656Q-13 693 10 716Q33 739 70 739Q122 739 149 667L303 253L446 661Q473 739 531 739Q609 739 609 662Q609 633 598 605L382 56Q355-12 298-12Q244-12 219 50L-4 609Q-13 632-13 656Z"  horiz-adv-x="591" vert-adv-y="1000"  />

      
      <glyph glyph-name="uni57" unicode="&#x57;" d="M244-9Q155-9 130 101L13 611Q7 637 7 662Q7 697 31 718Q55 739 91 739Q157 739 171 667L259 203L380 669Q398 739 472 739Q545 739 563 667L682 203L769 656Q785 739 853 739Q889 739 912 718Q935 697 935 662Q935 637 929 613L802 101Q787 42 767 20Q742-9 687-9Q600-9 576 84L467 501L364 93Q338-9 244-9Z"  horiz-adv-x="938" vert-adv-y="1000"  />

      
      <glyph glyph-name="uni58" unicode="&#x58;" d="M61-9Q33-9 9.50 13Q-14 35-14 63Q-14 97 23 147L200 387L67 581Q30 635 30 663Q30 697 53 718Q76 739 110 739Q154 739 196 675L297 522L403 677Q445 739 492 739Q521 739 543 717.50Q565 696 565 667Q565 636 527 581L393 387L571 146Q609 95 609 62Q609 33 586 12Q563-9 533-9Q486-9 443 52L295 260L148 53Q104-9 61-9Z"  horiz-adv-x="594" vert-adv-y="1000"  />

      
      <glyph glyph-name="uni59" unicode="&#x59;" d="M486 739Q515 739 537 716.50Q559 694 559 665Q559 636 520 581L352 343L352 108Q352-9 269-9Q186-9 186 108L186 343L17 581Q-20 633-20 665Q-20 697 4 718Q28 739 61 739Q101 739 146 675L270 497L396 677Q439 739 486 739Z"  horiz-adv-x="530" vert-adv-y="1000"  />

      
      <glyph glyph-name="uni5a" unicode="&#x5a;" d="M563 77Q563 0 445 0L109 0Q-6 0-6 83Q-6 123 40 184L338 579L123 579Q5 579 5 654Q5 730 123 730L417 730Q477 730 504 719Q548 702 548 652Q548 612 500 547L209 154L445 154Q563 154 563 77Z"  horiz-adv-x="546" vert-adv-y="1000"  />

      
      <glyph glyph-name="uni5b" unicode="&#x5b;" d="M248 772Q328 772 328 718Q328 675 280 665Q266 662 199 662L199-42Q264-42 279-45Q328-56 328-98Q328-152 247-152L174-152Q111-152 87-131Q60-108 60-47L60 655Q60 720 85 746Q110 772 175 772L248 772Z"  horiz-adv-x="333" vert-adv-y="1000"  />

      
      <glyph glyph-name="uni5c" unicode="&#x5c;" d="M-46 689Q-46 717-26 735Q-6 753 22 753Q61 753 93 693L412 90Q427 62 427 41Q427 13 406.50-5.50Q386-24 358-24Q318-24 286 36L-32 639Q-46 666-46 689Z"  horiz-adv-x="380" vert-adv-y="1000"  />

      
      <glyph glyph-name="uni5d" unicode="&#x5d;" d="M84 772L158 772Q224 772 248.50 746.50Q273 721 273 655L273-47Q273-109 248-130.50Q223-152 160-152L85-152Q5-152 5-98Q5-56 53-46Q70-42 133-42L133 662Q67 662 52 665Q5 675 5 718Q5 772 84 772Z"  horiz-adv-x="333" vert-adv-y="1000"  />

      
      <glyph glyph-name="uni5e" unicode="&#x5e;" d="M308 570L201 506Q169 487 144 487Q119 487 102.50 505.50Q86 524 86 550Q86 588 123 617L258 722Q281 740 308 740Q335 740 358 722L493 617Q530 588 530 550Q530 523 514 505Q498 487 472 487Q447 487 415 506L308 570Z"  horiz-adv-x="616" vert-adv-y="1000"  />

      
      <glyph glyph-name="uni5f" unicode="&#x5f;" d="M0-140L526-140L526-242L0-242L0-140Z"  horiz-adv-x="526" vert-adv-y="1000"  />

      
      <glyph glyph-name="uni60" unicode="&#x60;" d="M121 766Q121 794 139.50 812Q158 830 186 830Q220 830 244 797L319 694Q337 669 337 649Q337 592 281 592Q255 592 226 624L148 710Q121 740 121 766Z"  horiz-adv-x="513" vert-adv-y="1000"  />

      
      <glyph glyph-name="uni61" unicode="&#x61;" d="M191 275Q191 222 216 185Q245 143 296 143Q347 143 375 185Q399 222 399 275Q399 328 375 364Q347 405 296 405Q246 405 217 364Q191 327 191 275M405 49Q355-12 269-12Q160-12 89 78Q24 161 24 273Q24 386 92 470Q164 560 275 560Q356 560 405 502Q433 553 482 553Q562 553 562 436L562 111Q562-7 482-7Q429-7 405 49Z"  horiz-adv-x="618" vert-adv-y="1000"  />

      
      <glyph glyph-name="uni62" unicode="&#x62;" d="M214 517L218 517Q270 564 345 564Q458 564 528 473Q593 389 593 273Q593 189 553 120Q512 48 439 12Q394-10 345-10Q261-10 214 45Q183-7 137-7Q55-7 55 111L55 665Q55 783 137 783Q214 783 214 665L214 517M214 271Q214 217 240 181Q269 141 321 141Q373 141 403 184Q428 221 428 276Q428 332 403 370Q374 414 321 414Q268 414 239 373Q214 337 214 282L214 271Z"  horiz-adv-x="618" vert-adv-y="1000"  />

      
      <glyph glyph-name="uni63" unicode="&#x63;" d="M26 273Q26 400 102 480.50Q178 561 304 561Q370 561 419 541Q485 513 485 457Q485 428 466 408Q447 388 418 388Q399 388 368.50 400.50Q338 413 304 413Q249 413 219 371Q192 333 192 276Q192 216 220 180Q252 140 310 140Q344 140 373 152Q402 164 421 164Q449 164 466.50 143.50Q484 123 484 94Q484 45 416 11Q367-13 294-13Q172-13 98 70Q26 150 26 273Z"  horiz-adv-x="497" vert-adv-y="1000"  />

      
      <glyph glyph-name="uni64" unicode="&#x64;" d="M400 517L405 517L405 665Q405 783 482 783Q562 783 562 665L562 111Q562-7 482-7Q433-7 405 45Q355-10 273-10Q166-10 92 82Q24 168 24 278Q24 391 91 474Q162 564 273 564Q346 564 400 517M405 268L405 297Q405 414 297 414Q245 414 215 369Q190 331 190 276Q190 222 216 184Q246 141 297 141Q350 141 379 179Q405 214 405 268Z"  horiz-adv-x="618" vert-adv-y="1000"  />

      
      <glyph glyph-name="uni65" unicode="&#x65;" d="M192 228Q197 181 231 156Q265 131 314 131Q355 131 413 157.50Q471 184 485 184Q549 184 549 121Q549 97 531 73Q499 29 429 6Q370-14 306-14Q186-14 106 68.50Q26 151 26 272Q26 392 102.50 477Q179 562 298 562Q357 562 405 540Q474 508 518 445Q562 382 562 308Q562 268 533 247Q508 228 467 228L192 228M190 334L403 334Q400 376 370.50 403Q341 430 299 430Q256 430 227 403.50Q198 377 190 334Z"  horiz-adv-x="580" vert-adv-y="1000"  />

      
      <glyph glyph-name="uni66" unicode="&#x66;" d="M253 539Q379 539 379 467Q379 420 333 405Q309 397 249 397L249 111Q249-7 169-7Q88-7 88 111L88 397Q-9 397-9 467Q-9 539 88 539L88 595Q88 682 128 730Q171 783 256 783Q362 783 362 702Q362 636 289 636Q265 636 259 623.50Q253 611 253 539Z"  horiz-adv-x="360" vert-adv-y="1000"  />

      
      <glyph glyph-name="uni67" unicode="&#x67;" d="M405 263L405 292Q405 406 297 406Q246 406 217 363Q191 326 191 273Q191 219 216 181Q245 138 297 138Q350 138 379 175Q405 209 405 263M405 68L401 68Q350-8 258-8Q211-8 168 13Q98 48 59 122Q24 190 24 273Q24 386 92 470Q164 560 275 560Q356 560 405 502Q430 553 476 553Q557 553 557 436L557 111Q557 36 550-18Q536-125 458-182Q386-234 273-234Q161-234 98.50-198.50Q36-163 36-116Q36-85 55.50-65Q75-45 106-45Q124-45 177-66.50Q230-88 279-88Q341-88 373-51Q405-14 405 48L405 68Z"  horiz-adv-x="613" vert-adv-y="1000"  />

      
      <glyph glyph-name="uni68" unicode="&#x68;" d="M218 505Q264 553 356 553Q553 553 553 343L553 111Q553-7 472-7Q391-7 391 111L391 294Q391 354 377 379Q358 415 304 415Q218 415 218 296L218 111Q218-7 137-7Q55-7 55 111L55 665Q55 783 137 783Q218 783 218 665L218 505Z"  horiz-adv-x="605" vert-adv-y="1000"  />

      
      <glyph glyph-name="uni69" unicode="&#x69;" d="M222 111Q222-7 142-7Q61-7 61 111L61 436Q61 553 142 553Q222 553 222 436L222 111M48 690Q48 729 75.50 756Q103 783 142 783Q181 783 207.50 756Q234 729 234 690Q234 651 207.50 624Q181 597 142 597Q102 597 75 623.50Q48 650 48 690Z"  horiz-adv-x="282" vert-adv-y="1000"  />

      
      <glyph glyph-name="uni6a" unicode="&#x6a;" d="M222-108Q222-226 142-226Q61-226 61-108L61 436Q61 553 142 553Q222 553 222 436L222-108M48 690Q48 729 75.50 756Q103 783 142 783Q181 783 207.50 756Q234 729 234 690Q234 651 207.50 624Q181 597 142 597Q102 597 75 623.50Q48 650 48 690Z"  horiz-adv-x="282" vert-adv-y="1000"  />

      
      <glyph glyph-name="uni6b" unicode="&#x6b;" d="M218 368L355 510Q397 554 438 554Q465 554 485.50 536.50Q506 519 506 492Q506 452 465 414L356 313L507 136Q539 98 539 57Q539 28 515.50 10.50Q492-7 463-7Q415-7 379 41L218 257L218 111Q218-7 137-7Q55-7 55 111L55 665Q55 783 137 783Q218 783 218 665L218 368Z"  horiz-adv-x="528" vert-adv-y="1000"  />

      
      <glyph glyph-name="uni6c" unicode="&#x6c;" d="M61 665Q61 783 142 783Q222 783 222 665L222 111Q222-7 142-7Q61-7 61 111L61 665Z"  horiz-adv-x="282" vert-adv-y="1000"  />

      
      <glyph glyph-name="uni6d" unicode="&#x6d;" d="M55 111L55 436Q55 553 134 553Q185 553 214 502Q259 553 343 553Q449 553 504 479Q571 553 667 553Q850 553 850 343L850 111Q850-7 769-7Q690-7 690 111L690 294Q690 415 615 415Q533 415 533 296L533 111Q533-7 453-7Q373-7 373 111L373 294Q373 415 299 415Q216 415 216 296L216 111Q216-7 137-7Q55-7 55 111Z"  horiz-adv-x="901" vert-adv-y="1000"  />

      
      <glyph glyph-name="uni6e" unicode="&#x6e;" d="M55 111L55 436Q55 553 137 553Q185 553 214 502Q260 553 356 553Q553 553 553 343L553 111Q553-7 472-7Q391-7 391 111L391 294Q391 354 377 379Q358 415 304 415Q218 415 218 296L218 111Q218-7 137-7Q55-7 55 111Z"  horiz-adv-x="605" vert-adv-y="1000"  />

      
      <glyph glyph-name="uni6f" unicode="&#x6f;" d="M26 273Q26 396 102.50 479.50Q179 563 300 563Q423 563 498 480Q573 397 573 273Q573 150 499 68Q422-16 300-16Q179-16 101 69Q26 151 26 273M193 275Q193 220 219 182Q248 138 300 138Q353 138 382 182Q407 219 407 275Q407 329 381 367Q352 411 300 411Q247 411 218 368Q193 330 193 275Z"  horiz-adv-x="599" vert-adv-y="1000"  />

      
      <glyph glyph-name="uni70" unicode="&#x70;" d="M218 30L214 30L214-110Q214-226 137-226Q55-226 55-108L55 436Q55 553 137 553Q185 553 214 502Q263 557 347 557Q459 557 529 469Q593 387 593 273Q593 188 554 117Q514 42 441 6Q395-17 345-17Q272-17 218 30M214 263Q214 208 239 173Q268 133 321 133Q374 133 403 177Q428 216 428 271Q428 325 402 363Q373 407 321 407Q277 407 245.50 377.50Q214 348 214 263Z"  horiz-adv-x="618" vert-adv-y="1000"  />

      
      <glyph glyph-name="uni71" unicode="&#x71;" d="M405 30L400 30Q346-17 272-17Q163-17 91 76Q24 161 24 273Q24 386 90 469Q160 557 271 557Q355 557 405 502Q434 553 482 553Q562 553 562 436L562-108Q562-226 482-226Q405-226 405-108L405 30M405 259L405 290Q405 407 297 407Q245 407 216 363Q190 325 190 271Q190 216 215 177Q244 133 297 133Q351 133 379 170Q405 204 405 259Z"  horiz-adv-x="618" vert-adv-y="1000"  />

      
      <glyph glyph-name="uni72" unicode="&#x72;" d="M55 111L55 436Q55 553 137 553Q185 553 214 502Q264 556 323 556Q358 556 382 533.50Q406 511 406 476Q406 438 365 415Q360 413 284 384Q236 365 226 341Q218 322 218 279L218 111Q218-7 137-7Q55-7 55 111Z"  horiz-adv-x="390" vert-adv-y="1000"  />

      
      <glyph glyph-name="uni73" unicode="&#x73;" d="M210-15Q75-15 25 59Q10 81 10 105Q10 178 86 178Q108 178 147.50 154Q187 130 222 130Q267 130 267 163Q267 184 204 212Q117 251 88 273Q25 320 25 388Q25 468 87 517Q145 563 227 563Q278 563 324 547Q379 528 403 492Q417 471 417 450Q417 421 398 401.50Q379 382 350 382Q329 382 286.50 401.50Q244 421 220 421Q183 421 183 393Q183 371 214 359Q282 333 311 319Q367 291 396 260Q429 224 429 169Q429 85 360 33Q296-15 210-15Z"  horiz-adv-x="447" vert-adv-y="1000"  />

      
      <glyph glyph-name="uni74" unicode="&#x74;" d="M88 397Q-9 397-9 467Q-9 534 88 539Q88 637 92 657Q107 728 169 728Q230 728 245 657Q249 637 249 539Q366 539 366 467Q366 397 249 397L249 111Q249-7 169-7Q88-7 88 111L88 397Z"  horiz-adv-x="342" vert-adv-y="1000"  />

      
      <glyph glyph-name="uni75" unicode="&#x75;" d="M52 221L52 436Q52 553 133 553Q214 553 214 436L214 254Q214 200 228 173Q247 136 297 136Q347 136 366 173Q380 200 380 254L380 436Q380 553 461 553Q541 553 541 436L541 221Q541 105 477.50 44.50Q414-16 297-16Q180-16 116 44.50Q52 105 52 221Z"  horiz-adv-x="594" vert-adv-y="1000"  />

      
      <glyph glyph-name="uni76" unicode="&#x76;" d="M-4 473Q-4 506 18.50 529.50Q41 553 74 553Q132 553 157 474L245 193L333 485Q353 553 410 553Q446 553 465.50 530.50Q485 508 485 472Q485 453 472 419L336 66Q320 25 304 9Q282-13 243-13Q203-13 180 11Q163 27 146 71L5 429Q-4 452-4 473Z"  horiz-adv-x="475" vert-adv-y="1000"  />

      
      <glyph glyph-name="uni77" unicode="&#x77;" d="M392 329L386 329L323 66Q304-13 231-13Q163-13 133 71L5 429Q-4 454-4 473Q-4 506 18.50 529.50Q41 553 74 553Q134 553 157 474L242 179L311 475Q329 553 389 553Q448 553 468 473L542 183L627 485Q646 553 704 553Q740 553 759.50 530.50Q779 508 779 472Q779 453 767 419L643 66Q615-13 550-13Q473-13 453 71L392 329Z"  horiz-adv-x="777" vert-adv-y="1000"  />

      
      <glyph glyph-name="uni78" unicode="&#x78;" d="M258 172L143 35Q108-7 73-7Q41-7 18 17Q-5 41-5 73Q-5 106 29 144L163 292L50 407Q20 438 20 472Q20 504 42 529Q64 554 95 554Q132 554 162 520L261 406L351 516Q382 554 417 554Q451 554 475.50 531Q500 508 500 474Q500 443 464 405L357 291L484 148Q506 123 512 112Q522 94 522 68Q522 37 500.50 15Q479-7 448-7Q410-7 374 35L258 172Z"  horiz-adv-x="506" vert-adv-y="1000"  />

      
      <glyph glyph-name="uni79" unicode="&#x79;" d="M423 553Q503 553 503 476Q503 451 490 420L243-165Q215-231 172-231Q136-231 114-210Q92-189 92-153Q92-129 106-98L172 47L9 428Q0 449 0 473Q0 507 22.50 530Q45 553 79 553Q114 553 134 530Q146 516 161 475L253 231L352 489Q377 553 423 553Z"  horiz-adv-x="494" vert-adv-y="1000"  />

      
      <glyph glyph-name="uni7a" unicode="&#x7a;" d="M476 74Q476 0 374 0L79 0Q-6 0-6 50Q-6 81 18 112L240 399L101 399Q-1 399-1 473Q-1 546 102 546L361 546Q413 546 438 537.50Q463 529 463 497Q463 468 430 426L215 150L375 150Q476 150 476 74Z"  horiz-adv-x="459" vert-adv-y="1000"  />

      
      <glyph glyph-name="uni7b" unicode="&#x7b;" d="M246 268L246 264Q299 248 318 208Q332 178 332 117L332-4Q332-66 345-85Q355-100 382-103Q415-108 422-112Q441-122 441-156Q441-208 390-208Q335-208 301-201Q243-189 223-141Q210-108 210-38L210 88Q210 157 190 186Q170 215 137 215Q78 215 78 265Q78 317 137 317Q170 317 190 347Q210 377 210 445L210 570Q210 639 224 672Q244 720 301 733Q333 740 390 740Q441 740 441 688Q441 654 422 644Q414 639 382 636Q355 633 345 619Q332 601 332 536L332 416Q332 355 317 324Q298 284 246 268Z"  horiz-adv-x="513" vert-adv-y="1000"  />

      
      <glyph glyph-name="uni7c" unicode="&#x7c;" d="M205 784L309 784L309-196L205-196L205 784Z"  horiz-adv-x="513" vert-adv-y="1000"  />

      
      <glyph glyph-name="uni7d" unicode="&#x7d;" d="M267 268Q214 284 195 325Q182 354 182 416L182 536Q182 602 169 619Q159 633 132 636Q99 639 91 644Q72 654 72 688Q72 740 123 740Q180 740 212 733Q269 720 289 672Q303 639 303 570L303 445Q303 377 324 347Q345 317 377 317Q435 317 435 265Q435 215 377 215Q344 215 323.50 185.50Q303 156 303 88L303-38Q303-142 267-175Q231-208 123-208Q72-208 72-156Q72-122 91-112Q98-108 131-103Q158-100 170-83.50Q182-67 182-4L182 117Q182 180 196 209Q214 248 267 264L267 268Z"  horiz-adv-x="513" vert-adv-y="1000"  />

      
      <glyph glyph-name="uni7e" unicode="&#x7e;" d="M305 418Q395 418 464 368Q475 356 500 335Q521 319 551 319Q595 319 626 354Q657 389 689 389Q755 389 755 330Q755 305 740 281Q687 197 551 197Q444 197 385 255Q375 265 354 284Q340 296 305 296Q263 296 230 261Q197 226 165 226Q102 226 102 285Q102 308 117 333Q143 376 199 399Q248 418 305 418Z"  horiz-adv-x="855" vert-adv-y="1000"  />

      
      <glyph glyph-name="uni201A" unicode="&#x201A;" d="M139 14Q117 6 101 6Q67 6 47.50 27Q28 48 28 82Q28 119 52 142.50Q76 166 113 166Q161 166 189 126Q214 91 214 41Q214 3 200-30Q181-74 146-105Q107-141 63-141Q51-141 41.50-132.50Q32-124 32-113Q32-94 47-86Q102-56 110-50Q138-27 139 14Z"  horiz-adv-x="237" vert-adv-y="1000"  />

      
      <glyph glyph-name="uni201E" unicode="&#x201E;" d="M139 14Q117 6 101 6Q67 6 47.50 27Q28 48 28 82Q28 119 52 142.50Q76 166 113 166Q161 166 189 126Q214 91 214 41Q214 3 200-30Q181-74 146-105Q107-141 63-141Q51-141 41.50-132.50Q32-124 32-113Q32-94 47-86Q102-56 110-50Q138-27 139 14M364 14Q343 6 326 6Q293 6 273.50 27.50Q254 49 254 82Q254 119 278 142.50Q302 166 339 166Q387 166 415 126Q439 91 439 41Q439-11 411.50-57.50Q384-104 339-127Q312-141 287-141Q276-141 266.50-132.50Q257-124 257-113Q257-94 273-86Q325-59 335-50Q363-26 364 14Z"  horiz-adv-x="463" vert-adv-y="1000"  />

      
      <glyph glyph-name="uni2026" unicode="&#x2026;" d="M90 86Q90 125 117.50 152.50Q145 180 184 180Q223 180 249.50 152.50Q276 125 276 86Q276 47 249.50 20Q223-7 184-7Q144-7 117 19.50Q90 46 90 86M432 86Q432 125 459.50 152.50Q487 180 526 180Q565 180 591.50 152.50Q618 125 618 86Q618 47 591.50 20Q565-7 526-7Q486-7 459 19.50Q432 46 432 86M775 86Q775 125 802.50 152.50Q830 180 869 180Q908 180 934.50 152.50Q961 125 961 86Q961 47 934.50 20Q908-7 869-7Q829-7 802 19.50Q775 46 775 86Z"  horiz-adv-x="1051" vert-adv-y="1000"  />

      
      <glyph glyph-name="uni2020" unicode="&#x2020;" d="M333 529L420 529Q500 529 500 468Q500 410 419 410L333 410L333-14Q333-117 263-117Q193-117 193-14L193 410L106 410Q26 410 26 469Q26 529 107 529L193 529L193 649Q193 751 263 751Q333 751 333 649L333 529Z"  horiz-adv-x="526" vert-adv-y="1000"  />

      
      <glyph glyph-name="uni2030" unicode="&#x2030;" d="M10 576Q10 642 55.50 690.50Q101 739 167 739Q234 739 279 691.50Q324 644 324 576Q324 509 279 461Q234 413 167 413Q101 413 55.50 461Q10 509 10 576M115 576Q115 555 130.50 538.50Q146 522 167 522Q190 522 205 537.50Q220 553 220 576Q220 600 205.50 615Q191 630 167 630Q145 630 130 614Q115 598 115 576M393 154Q393 220 438.50 268.50Q484 317 550 317Q617 317 662 269.50Q707 222 707 154Q707 87 662 39Q617-9 550-9Q484-9 438.50 39Q393 87 393 154M498 154Q498 133 513.50 116.50Q529 100 550 100Q573 100 588 115.50Q603 131 603 154Q603 178 588.50 193Q574 208 550 208Q528 208 513 192Q498 176 498 154M745 154Q745 220 790.50 268.50Q836 317 902 317Q970 317 1015 269.50Q1060 222 1060 154Q1060 87 1014.50 39Q969-9 902-9Q836-9 790.50 39Q745 87 745 154M850 154Q850 133 865.50 116.50Q881 100 902 100Q925 100 940 115.50Q955 131 955 154Q955 178 940.50 193Q926 208 902 208Q880 208 865 192Q850 176 850 154M174-17Q149-17 132 0Q115 17 115 42Q115 67 131 95L470 687Q503 744 542 744Q567 744 584 728Q601 712 601 687Q601 663 583 632L245 41Q212-17 174-17Z"  horiz-adv-x="1070" vert-adv-y="1000"  />

      
      <glyph glyph-name="uni2039" unicode="&#x2039;" d="M131 270L220 205Q240 190 246 181Q254 169 254 147Q254 87 212 87Q193 87 169 102Q79 158 49 196Q24 228 24 270Q24 317 48 344Q92 394 170 440Q193 454 213 454Q254 454 254 394Q254 361 220 336L131 270Z"  horiz-adv-x="280" vert-adv-y="1000"  />

      
      <glyph glyph-name="uni2018" unicode="&#x2018;" d="M106 598Q127 606 143 606Q177 606 197 584Q217 562 217 528Q217 492 192 469Q167 446 130 446Q84 446 56 483Q31 517 31 565Q31 619 57.50 667Q84 715 130 739Q157 753 182 753Q213 753 213 725Q213 707 197 699Q150 675 135 662Q107 637 106 598Z"  horiz-adv-x="237" vert-adv-y="1000"  />

      
      <glyph glyph-name="uni2019" unicode="&#x2019;" d="M142 599Q123 591 105 591Q72 591 51.50 612Q31 633 31 666Q31 703 55.50 727Q80 751 117 751Q166 751 193 711Q218 677 218 626Q218 587 204 555Q185 513 149 480Q108 444 66 444Q35 444 35 471Q35 489 51 498Q102 526 113 535Q141 560 142 599Z"  horiz-adv-x="237" vert-adv-y="1000"  />

      
      <glyph glyph-name="uni201C" unicode="&#x201C;" d="M334 598Q355 606 371 606Q405 606 425 584Q445 562 445 528Q445 492 420 469Q395 446 358 446Q312 446 284 483Q259 517 259 565Q259 619 285.50 667Q312 715 358 739Q385 753 410 753Q440 753 440 725Q440 707 425 699Q374 671 363 662Q335 637 334 598M106 598Q127 606 144 606Q178 606 197.50 584.50Q217 563 217 528Q217 492 192 469Q167 446 131 446Q85 446 57 484Q31 518 31 565Q31 618 58.50 667Q86 716 131 739Q158 753 183 753Q214 753 214 725Q214 707 198 699Q149 674 135 662Q107 637 106 598Z"  horiz-adv-x="463" vert-adv-y="1000"  />

      
      <glyph glyph-name="uni201D" unicode="&#x201D;" d="M142 599Q123 591 105 591Q72 591 51.50 612Q31 633 31 666Q31 703 55.50 727Q80 751 117 751Q166 751 193 711Q218 677 218 626Q218 587 204 555Q185 513 149 480Q108 444 66 444Q35 444 35 471Q35 489 51 498Q102 526 113 535Q141 560 142 599M370 599Q351 591 333 591Q300 591 279.50 612Q259 633 259 666Q259 703 283.50 727Q308 751 345 751Q394 751 421 712Q445 677 445 626Q445 575 418 529Q391 483 346 459Q318 444 294 444Q263 444 263 471Q263 489 279 498Q331 527 341 535Q369 559 370 599Z"  horiz-adv-x="463" vert-adv-y="1000"  />

      
      <glyph glyph-name="uni2022" unicode="&#x2022;" d="M154 382Q154 444 197.50 487Q241 530 303 530Q365 530 408 487Q451 444 451 382Q451 320 407.50 276.50Q364 233 302 233Q241 233 197.50 277Q154 321 154 382Z"  horiz-adv-x="606" vert-adv-y="1000"  />

      
      <glyph glyph-name="uni2013" unicode="&#x2013;" d="M465 338Q526 338 526 285Q526 233 465 233L61 233Q0 233 0 285Q0 338 61 338L465 338Z"  horiz-adv-x="526" vert-adv-y="1000"  />

      
      <glyph glyph-name="uni2014" unicode="&#x2014;" d="M979 338Q1051 338 1051 285Q1051 233 978 233L73 233Q0 233 0 285Q0 338 73 338L979 338Z"  horiz-adv-x="1051" vert-adv-y="1000"  />

      
      <glyph glyph-name="uni2122" unicode="&#x2122;" d="M145 733L311 733Q349 733 349 704Q349 677 311 677L265 677L265 498Q265 459 226 459Q190 459 190 498L190 677L145 677Q106 677 106 704Q106 733 145 733M639 643L578 498Q568 474 548 474Q527 474 517 498L456 643L454 643L454 498Q454 459 420 459Q386 459 386 498L386 686Q386 733 435 733Q484 733 503 684L548 567L592 686Q609 733 658 733Q708 733 708 686L708 498Q708 459 672 459Q641 459 641 498L641 643L639 643Z"  horiz-adv-x="838" vert-adv-y="1000"  />

      
      <glyph glyph-name="uni203A" unicode="&#x203A;" d="M148 271L61 336Q40 351 35 360Q27 372 27 394Q27 454 69 454Q88 454 110 440Q203 380 232 345Q257 315 257 271Q257 223 233 197Q206 168 155 131Q94 87 67 87Q27 87 27 147Q27 179 61 205L148 271Z"  horiz-adv-x="280" vert-adv-y="1000"  />

      
      <glyph glyph-name="unia4" unicode="&#xa4;" d="M86 721L189 619Q240 658 311 658Q382 658 435 619L537 721L589 667L488 565Q526 510 526 444Q526 378 488 322L589 220L537 167L435 269Q384 230 312 230Q241 230 189 269L86 167L34 220L136 322Q98 375 98 444Q98 512 136 565L34 667L86 721M312 582Q256 582 215 541Q174 500 174 444Q174 387 214.50 346.50Q255 306 312 306Q369 306 410 346.50Q451 387 451 444Q451 501 410 541.50Q369 582 312 582Z"  horiz-adv-x="622" vert-adv-y="1000"  />

      
      <glyph glyph-name="unia6" unicode="&#xa6;" d="M205 718L309 718L309 338L205 338L205 718M205 204L309 204L309-176L205-176L205 204Z"  horiz-adv-x="513" vert-adv-y="1000"  />

      
      <glyph glyph-name="unia7" unicode="&#xa7;" d="M104 453Q53 503 53 568Q53 655 116 705Q174 751 263 751Q417 751 471 653Q486 626 486 595Q486 565 468 545.50Q450 526 420 526Q391 526 372.50 552Q354 578 336 604Q310 631 267 631Q198 631 198 580Q198 551 234 531Q265 514 339 477.50Q413 441 443 421Q501 382 522 336Q535 308 535 268Q535 166 443 112Q493 61 493-6Q493-94 426-143Q366-186 275-186Q224-186 183-173Q129-156 93-122Q51-82 51-31Q51-2 69.50 18.50Q88 39 117 39Q147 39 166 13Q185-13 203-39Q229-66 275-66Q347-66 347-14Q347 16 312 35Q232 75 152 115Q52 170 24 230Q10 260 10 298Q10 346 35.50 388Q61 430 104 453M350 180Q395 203 395 249Q395 283 344 312Q304 335 195 386Q151 360 151 316Q151 284 201 255Q251 226 350 180Z"  horiz-adv-x="537" vert-adv-y="1000"  />

      
      <glyph glyph-name="uni0401" unicode="&#x0401;" d="M367 730Q485 730 485 652Q485 575 367 575L231 575L231 445L348 445Q466 445 466 368Q466 291 348 291L231 291L231 154L372 154Q490 154 490 77Q490 0 372 0L178 0Q115 0 90 21.50Q65 43 65 105L65 613Q65 678 90 704Q115 730 180 730L367 730M420 876Q420 794 348 794Q313 794 294.50 817.50Q276 841 276 876Q276 912 294.50 935.50Q313 959 348 959Q420 959 420 876M243 876Q243 794 171 794Q100 794 100 876Q100 959 171 959Q243 959 243 876Z"  horiz-adv-x="518" vert-adv-y="1000"  />

      
      <glyph glyph-name="unia9" unicode="&#xa9;" d="M427 741Q583 741 692 632.50Q801 524 801 368Q801 213 693 107Q579-5 427-5Q276-5 165.50 106Q55 217 55 368Q55 521 164 631Q273 741 427 741M428 680Q298 680 207.50 589.50Q117 499 117 369Q117 240 208 148.50Q299 57 428 57Q555 57 650 150Q739 237 739 369Q739 499 648.50 589.50Q558 680 428 680M231 368Q231 463 292 523Q353 583 448 583Q497 583 534 568Q583 547 583 505Q583 454 534 454Q521 454 494 463Q467 472 448 472Q406 472 381 442Q356 412 356 370Q356 326 382.50 296.50Q409 267 453 267Q473 267 498.50 276Q524 285 536 285Q557 285 570 270Q583 255 583 233Q583 189 520 165Q487 152 440 152Q348 152 289.50 214Q231 276 231 368Z"  horiz-adv-x="855" vert-adv-y="1000"  />

      
      <glyph glyph-name="uniab" unicode="&#xab;" d="M131 270L220 205Q240 190 246 181Q254 169 254 147Q254 87 212 87Q193 87 169 102Q79 158 49 196Q24 228 24 270Q24 317 48 344Q92 394 170 440Q193 454 213 454Q254 454 254 394Q254 361 220 336L131 270M370 270L458 205Q491 181 491 147Q491 87 449 87Q431 87 407 102Q315 160 287 196Q262 228 262 270Q262 318 286 344Q332 395 408 440Q432 454 451 454Q491 454 491 394Q491 371 485 361Q479 351 458 336L370 270Z"  horiz-adv-x="518" vert-adv-y="1000"  />

      
      <glyph glyph-name="uniac" unicode="&#xac;" d="M174 439L731 439L731 229Q731 176 679 176Q628 176 628 229L628 335L174 335Q113 335 113 387Q113 439 174 439Z"  horiz-adv-x="855" vert-adv-y="1000"  />

      
      <glyph glyph-name="uniae" unicode="&#xae;" d="M427 741Q583 741 692 632.50Q801 524 801 368Q801 290 773 223Q731 121 634.50 58Q538-5 427-5Q275-5 165 105.50Q55 216 55 368Q55 468 110 562Q160 648 243.50 694.50Q327 741 427 741M428 680Q300 680 212 591Q117 495 117 369Q117 242 208.50 149Q300 56 427 56Q553 56 646 146Q739 236 739 362Q739 496 650 588Q561 680 428 680M435 582Q612 582 612 463Q612 377 522 353L592 246Q612 215 612 182Q612 170 594.50 161Q577 152 563 152Q534 152 509 194L423 338L374 338L374 216Q374 152 322 152Q273 152 273 216L273 523Q273 582 322 582L435 582M374 518L374 398L423 398Q508 398 508 457Q508 518 418 518L374 518Z"  horiz-adv-x="855" vert-adv-y="1000"  />

      
      <glyph glyph-name="unib0" unicode="&#xb0;" d="M169 734Q232 734 276.50 689Q321 644 321 581Q321 518 276 473.50Q231 429 168 429Q106 429 61.50 473.50Q17 518 17 581Q17 644 61.50 689Q106 734 169 734M169 669Q132 669 106.50 644Q81 619 81 582Q81 546 107 520Q133 494 169 494Q205 494 231 520Q257 546 257 582Q257 620 232 644.50Q207 669 169 669Z"  horiz-adv-x="338" vert-adv-y="1000"  />

      
      <glyph glyph-name="unib1" unicode="&#xb1;" d="M376 351L198 351Q126 351 126 399Q126 451 198 451L376 451L376 561Q376 614 426 614Q478 614 478 561L478 451L656 451Q728 451 728 399Q728 351 656 351L478 351L478 241Q478 188 426 188Q376 188 376 241L376 351M198 100L656 100Q728 100 728 48Q728 0 656 0L198 0Q126 0 126 48Q126 100 198 100Z"  horiz-adv-x="855" vert-adv-y="1000"  />

      
      <glyph glyph-name="unib5" unicode="&#xb5;" d="M555 103Q605 103 617 100Q649 92 649 56Q649 16 598-3Q561-16 513-16Q433-16 411 38L408 38Q369-16 320-16Q260-16 209 44L209-141Q209-220 141-220Q65-220 65-141L65 471Q65 547 141 547Q209 547 209 471L209 330Q209 199 238 149Q265 103 331 103Q411 103 411 290L411 471Q411 547 485 547Q555 547 555 471L555 103Z"  horiz-adv-x="649" vert-adv-y="1000"  />

      
      <glyph glyph-name="uni03BC" unicode="&#x03BC;" d="M555 103Q605 103 617 100Q649 92 649 56Q649 16 598-3Q561-16 513-16Q433-16 411 38L408 38Q369-16 320-16Q260-16 209 44L209-141Q209-220 141-220Q65-220 65-141L65 471Q65 547 141 547Q209 547 209 471L209 330Q209 199 238 149Q265 103 331 103Q411 103 411 290L411 471Q411 547 485 547Q555 547 555 471L555 103Z"  horiz-adv-x="649" vert-adv-y="1000"  />

      
      <glyph glyph-name="unib6" unicode="&#xb6;" d="M217 741L493 741Q546 741 546 708Q546 677 493 677L436 677L436 59Q436 0 395 0Q360 0 360 59L360 677L280 677L280 59Q280 0 242 0Q204 0 204 59L204 393Q124 396 74 441Q21 489 21 567Q21 650 79 697Q132 741 217 741Z"  horiz-adv-x="546" vert-adv-y="1000"  />

      
      <glyph glyph-name="unib7" unicode="&#xb7;" d="M73 364Q73 403 100 430.50Q127 458 166 458Q206 458 233 431Q260 404 260 364Q260 325 232.50 298.50Q205 272 166 272Q127 272 100 298.50Q73 325 73 364Z"  horiz-adv-x="333" vert-adv-y="1000"  />

      
      <glyph glyph-name="uni2219" unicode="&#x2219;" d="M73 364Q73 403 100 430.50Q127 458 166 458Q206 458 233 431Q260 404 260 364Q260 325 232.50 298.50Q205 272 166 272Q127 272 100 298.50Q73 325 73 364Z"  horiz-adv-x="333" vert-adv-y="1000"  />

      
      <glyph glyph-name="uni0451" unicode="&#x0451;" d="M190 228Q195 181 229 156Q263 131 312 131Q353 131 411 157.50Q469 184 483 184Q547 184 547 121Q547 97 529 73Q497 29 427 6Q368-14 304-14Q184-14 104 68.50Q24 151 24 272Q24 392 100.50 477Q177 562 296 562Q408 562 484 486Q560 410 560 298Q560 262 529 243Q503 228 464 228L190 228M188 334L401 334Q398 376 368.50 403Q339 430 297 430Q254 430 225 403.50Q196 377 188 334M464 690Q464 608 392 608Q357 608 338.50 631.50Q320 655 320 690Q320 726 338.50 749.50Q357 773 392 773Q464 773 464 690M287 690Q287 608 216 608Q144 608 144 690Q144 773 216 773Q287 773 287 690Z"  horiz-adv-x="575" vert-adv-y="1000"  />

      
      <glyph glyph-name="uni2116" unicode="&#x2116;" d="M145-9Q62-9 62 109L62 627Q62 739 139 739Q186 739 227 685L534 279L534 621Q534 739 617 739Q700 739 700 621L700 90Q700-13 624-13Q574-13 529 47L228 445L228 109Q228-9 145-9M779 434Q779 524 828.50 580Q878 636 967 636Q1056 636 1105 580.50Q1154 525 1154 434Q1154 344 1106 291Q1056 235 967 235Q879 235 829 290Q779 345 779 434M903 436Q903 341 967 341Q1030 341 1030 436Q1030 530 967 530Q903 530 903 436M859 40Q779 40 779 98Q779 154 860 154L1074 154Q1154 154 1154 97Q1154 61 1130 49Q1113 40 1073 40L859 40Z"  horiz-adv-x="1209" vert-adv-y="1000"  />

      
      <glyph glyph-name="unibb" unicode="&#xbb;" d="M148 271L60 336Q40 351 33 361.50Q26 372 26 394Q26 454 68 454Q88 454 110 440Q201 381 231 345Q256 315 256 271Q256 224 232 197Q206 167 155 130Q94 87 67 87Q26 87 26 147Q26 180 60 205L148 271M385 271L298 336Q277 351 272 360Q264 372 264 394Q264 454 306 454Q326 454 348 440Q439 381 469 345Q494 315 494 271Q494 224 469 197Q440 165 391 130Q332 87 304 87Q264 87 264 147Q264 179 298 205L385 271Z"  horiz-adv-x="518" vert-adv-y="1000"  />

      
      <glyph glyph-name="uni0410" unicode="&#x0410;" d="M325 740Q414 740 448 644L632 119Q644 85 644 67Q644 33 620 12Q596-9 562-9Q499-9 474 70L447 156L189 156L159 64Q135-9 79-9Q44-9 22 12.50Q0 34 0 69Q0 95 8 117L198 632Q238 740 325 740M320 559L237 303L402 303L322 559L320 559Z"  horiz-adv-x="642" vert-adv-y="1000"  />

      
      <glyph glyph-name="uni0411" unicode="&#x0411;" d="M231 345L231 153L303 153Q417 153 417 248Q417 345 303 345L231 345M231 496L343 496Q462 496 529.50 431.50Q597 367 597 248Q597 130 522 63Q450 0 330 0L180 0Q115 0 90 26Q65 52 65 117L65 613Q65 678 90 704Q115 730 180 730L440 730Q559 730 559 652Q559 575 440 575L231 575L231 496Z"  horiz-adv-x="622" vert-adv-y="1000"  />

      
      <glyph glyph-name="uni0412" unicode="&#x0412;" d="M178 0Q115 0 90 21.50Q65 43 65 105L65 613Q65 678 90 704Q115 730 180 730L316 730Q415 730 484 689Q568 640 568 548Q568 429 482 387L482 384Q546 364 574 325.50Q602 287 602 220Q602 109 525 51Q457 0 342 0L178 0M231 315L231 143L314 143Q367 143 393 157Q427 176 427 225Q427 282 394 301Q370 315 311 315L231 315M231 588L231 445L303 445Q352 445 372 457Q400 473 400 517Q400 588 303 588L231 588Z"  horiz-adv-x="632" vert-adv-y="1000"  />

      
      <glyph glyph-name="uni0413" unicode="&#x0413;" d="M65 109L65 613Q65 678 90 704Q115 730 180 730L367 730Q485 730 485 652Q485 575 367 575L231 575L231 109Q231-9 148-9Q65-9 65 109Z"  horiz-adv-x="497" vert-adv-y="1000"  />

      
      <glyph glyph-name="uni0414" unicode="&#x0414;" d="M581 0L157 0L157-65Q157-99 137-119Q117-139 82-139Q48-139 28.50-119Q9-99 9-65L9 68Q9 139 74 139Q93 139 103.50 170Q114 201 114 277L114 545Q114 630 162 680Q210 730 295 730L550 730Q603 730 625 696Q642 669 642 612L642 139Q729 139 729 68L729-65Q729-139 655-139Q621-139 601-119Q581-99 581-65L581 0M240 139L475 139L475 583L299 583Q262 583 262 543L262 277Q262 201 240 139Z"  horiz-adv-x="747" vert-adv-y="1000"  />

      
      <glyph glyph-name="uni0415" unicode="&#x0415;" d="M367 730Q485 730 485 652Q485 575 367 575L231 575L231 445L348 445Q466 445 466 368Q466 291 348 291L231 291L231 154L372 154Q490 154 490 77Q490 0 372 0L178 0Q115 0 90 21.50Q65 43 65 105L65 613Q65 678 90 704Q115 730 180 730L367 730Z"  horiz-adv-x="518" vert-adv-y="1000"  />

      
      <glyph glyph-name="uni0416" unicode="&#x0416;" d="M396 298L382 309L166 49Q118-9 77-9Q47-9 23.50 14.50Q0 38 0 68Q0 101 42 150L261 406L97 568Q57 607 55 610Q31 638 31 661Q31 692 56.50 715.50Q82 739 113 739Q146 739 204 680L396 483L396 621Q396 739 473 739Q520 739 538 701Q550 675 550 621L550 483L742 680Q800 739 834 739Q866 739 891 716Q916 693 916 661Q916 638 892 610Q890 607 850 568L686 406L905 150Q947 101 947 68Q947 38 923.50 14.50Q900-9 870-9Q828-9 780 49L565 309L550 298L550 109Q550-9 473-9Q396-9 396 109L396 298Z"  horiz-adv-x="947" vert-adv-y="1000"  />

      
      <glyph glyph-name="uni0417" unicode="&#x0417;" d="M432 390L432 387Q549 340 549 220Q549-9 262-9Q171-9 108 12Q15 43 15 115Q15 178 84 178Q113 178 142 166Q185 148 196 145Q219 139 265 139Q376 139 376 225Q376 262 350 288Q330 309 292 313Q283 314 228 314Q124 314 124 383Q124 414 153 434Q175 449 211 452Q218 453 273 453Q311 453 336 468Q367 487 367 522Q367 601 267 601Q236 601 186.50 587Q137 573 112 573Q43 573 43 636Q43 657 62 677Q121 739 271 739Q531 739 531 538Q531 433 432 390Z"  horiz-adv-x="580" vert-adv-y="1000"  />

      
      <glyph glyph-name="uni0418" unicode="&#x0418;" d="M537 445L236 47Q194-9 140-9Q65-9 65 90L65 621Q65 739 148 739Q231 739 231 621L231 279L538 685Q579 739 626 739Q703 739 703 627L703 109Q703-9 620-9Q537-9 537 109L537 445Z"  horiz-adv-x="768" vert-adv-y="1000"  />

      
      <glyph glyph-name="uni0419" unicode="&#x0419;" d="M537 445L236 47Q194-9 140-9Q65-9 65 90L65 621Q65 739 148 739Q231 739 231 621L231 279L538 685Q579 739 626 739Q703 739 703 627L703 109Q703-9 620-9Q537-9 537 109L537 445M384 775Q309 775 262 812Q215 849 215 894Q215 951 268 951Q298 951 320 917.50Q342 884 384 884Q426 884 448 917.50Q470 951 499 951Q553 951 553 894Q553 837 494 803Q445 775 384 775Z"  horiz-adv-x="768" vert-adv-y="1000"  />

      
      <glyph glyph-name="uni041A" unicode="&#x041A;" d="M65 109L65 621Q65 739 148 739Q231 739 231 621L231 462L443 680Q500 739 534 739Q566 739 591 716Q616 693 616 661Q616 638 592 610Q591 609 550 568L382 401L605 150Q647 103 647 68Q647 38 623.50 14.50Q600-9 570-9Q530-9 480 49L260 305L231 281L231 109Q231-9 148-9Q65-9 65 109Z"  horiz-adv-x="638" vert-adv-y="1000"  />

      
      <glyph glyph-name="uni041B" unicode="&#x041B;" d="M531 592L353 592Q316 592 316 547L316 139Q316-9 169-9Q37-9 37 68Q37 114 62 129Q77 138 115 139Q149 140 159 150Q169 160 169 194L169 547Q169 654 208 696.50Q247 739 353 739L614 739Q697 739 697 621L697 109Q697-9 614-9Q562-9 544 26Q531 51 531 109L531 592Z"  horiz-adv-x="762" vert-adv-y="1000"  />

      
      <glyph glyph-name="uni041C" unicode="&#x041C;" d="M447 231L451 231L547 641Q557 684 589.50 711.50Q622 739 666 739Q716 739 752 707Q788 675 796 625L876 127Q882 90 882 71Q882-9 807-9Q763-9 743 25Q729 47 721 98L658 497L656 497L562 128Q547 71 528 46Q500 11 449 11Q398 11 370 46Q351 70 336 128L241 497L239 497L177 98Q169 46 155 24Q134-9 90-9Q15-9 15 71Q15 83 22 127L102 625Q110 675 145.50 707Q181 739 231 739Q276 739 307.50 712Q339 685 350 641L447 231Z"  horiz-adv-x="897" vert-adv-y="1000"  />

      
      <glyph glyph-name="uni041D" unicode="&#x041D;" d="M231 295L231 109Q231-9 148-9Q65-9 65 109L65 621Q65 739 148 739Q231 739 231 621L231 449L537 449L537 621Q537 739 620 739Q703 739 703 621L703 109Q703-9 620-9Q537-9 537 109L537 295L231 295Z"  horiz-adv-x="768" vert-adv-y="1000"  />

      
      <glyph glyph-name="uni041E" unicode="&#x041E;" d="M30 364Q30 528 122 631Q217 739 379 739Q542 739 637 632Q729 529 729 364Q729 200 637 97Q541-9 379-9Q217-9 122 98Q30 200 30 364M206 362Q206 272 247 213Q293 144 379 144Q465 144 512 212Q553 272 553 362Q553 455 514 515Q467 586 379 586Q291 586 245 515Q206 455 206 362Z"  horiz-adv-x="759" vert-adv-y="1000"  />

      
      <glyph glyph-name="uni041F" unicode="&#x041F;" d="M231 583L231 109Q231-9 148-9Q65-9 65 109L65 612Q65 730 179 730L589 730Q703 730 703 612L703 109Q703-9 620-9Q537-9 537 109L537 583L231 583Z"  horiz-adv-x="768" vert-adv-y="1000"  />

      
      <glyph glyph-name="uni0420" unicode="&#x0420;" d="M231 385L303 385Q417 385 417 482Q417 577 303 577L231 577L231 385M148-9Q65-9 65 109L65 613Q65 678 90 704Q115 730 180 730L330 730Q451 730 522 667Q597 601 597 482Q597 364 529 299Q461 234 343 234L231 234L231 109Q231-9 148-9Z"  horiz-adv-x="622" vert-adv-y="1000"  />

      
      <glyph glyph-name="uni0421" unicode="&#x0421;" d="M385-18Q220-18 122 92Q28 197 28 364Q28 527 125 636Q225 749 387 749Q445 749 497 733Q562 713 590 676Q606 655 606 633Q606 604 585 581.50Q564 559 535 559Q508 559 470 574Q432 589 388 589Q298 589 250 517Q208 455 208 360Q208 267 253 208Q302 142 393 142Q433 142 482 160Q531 178 548 178Q576 178 595.50 155.50Q615 133 615 105Q615 81 599 59Q543-18 385-18Z"  horiz-adv-x="636" vert-adv-y="1000"  />

      
      <glyph glyph-name="uni0422" unicode="&#x0422;" d="M167 575Q77 575 55 580Q-12 594-12 652Q-12 730 106 730L395 730Q513 730 513 652Q513 594 446 580Q424 575 334 575L334 109Q334-9 251-9Q167-9 167 109L167 575Z"  horiz-adv-x="501" vert-adv-y="1000"  />

      
      <glyph glyph-name="uni0423" unicode="&#x0423;" d="M236-144Q162-144 162-65Q162-39 171-17L218 100L12 610Q3 632 3 657Q3 694 24 717Q45 740 82 740Q129 740 158 668L301 314L305 314L436 662Q451 701 464 716Q484 740 518 740Q595 740 595 663Q595 634 584 606L318-76Q304-111 289-126Q270-144 236-144Z"  horiz-adv-x="586" vert-adv-y="1000"  />

      
      <glyph glyph-name="uni0424" unicode="&#x0424;" d="M429-9Q374-9 358 33Q348 57 348 122Q235 122 186 140Q110 168 67.50 230Q25 292 25 373Q25 454 66.50 515.50Q108 577 184 605Q232 623 348 623Q348 680 360 704Q378 739 429 739Q481 739 499 704Q511 680 511 623Q626 623 675 605Q751 577 792.50 515.50Q834 454 834 373Q834 292 791.50 230Q749 168 673 140Q624 122 511 122Q511 57 501 33Q484-9 429-9M508 489L508 258L554 258Q665 258 665 373Q665 489 554 489L508 489M351 258L351 489L305 489Q194 489 194 373Q194 258 305 258L351 258Z"  horiz-adv-x="859" vert-adv-y="1000"  />

      
      <glyph glyph-name="uni0425" unicode="&#x0425;" d="M61-9Q33-9 9.50 13Q-14 35-14 63Q-14 97 23 147L200 387L67 581Q30 635 30 663Q30 697 53 718Q76 739 110 739Q154 739 196 675L297 522L403 677Q445 739 492 739Q521 739 543 717.50Q565 696 565 667Q565 636 527 581L393 387L571 146Q609 95 609 62Q609 33 586 12Q563-9 533-9Q486-9 443 52L295 260L148 53Q104-9 61-9Z"  horiz-adv-x="594" vert-adv-y="1000"  />

      
      <glyph glyph-name="uni0426" unicode="&#x0426;" d="M238 139L528 139L528 621Q528 739 611 739Q694 739 694 621L694 139Q780 139 780 68L780-65Q780-139 706-139Q672-139 652-119Q632-99 632-65L632 0L186 0Q72 0 72 118L72 621Q72 739 155 739Q238 739 238 621L238 139Z"  horiz-adv-x="790" vert-adv-y="1000"  />

      
      <glyph glyph-name="uni0427" unicode="&#x0427;" d="M302 394L386 394L386 622Q386 739 469 739Q552 739 552 622L552 109Q552-9 469-9Q386-9 386 109L386 246L274 246Q157 246 95.50 309.50Q34 373 34 491L34 622Q34 739 117 739Q200 739 200 622L200 491Q200 433 221.50 413.50Q243 394 302 394Z"  horiz-adv-x="617" vert-adv-y="1000"  />

      
      <glyph glyph-name="uni0428" unicode="&#x0428;" d="M767 139L767 621Q767 739 850 739Q933 739 933 621L933 118Q933 0 819 0L179 0Q65 0 65 118L65 621Q65 739 148 739Q231 739 231 621L231 139L425 139L425 621Q425 675 436 700Q453 739 499 739Q545 739 562 700Q573 675 573 621L573 139L767 139Z"  horiz-adv-x="998" vert-adv-y="1000"  />

      
      <glyph glyph-name="uni0429" unicode="&#x0429;" d="M767 139L767 621Q767 739 850 739Q933 739 933 621L933 139L946 139Q1020 139 1020 68L1020-65Q1020-99 1000-119Q980-139 946-139Q912-139 892-119Q872-99 872-65L872 0L179 0Q65 0 65 118L65 621Q65 739 148 739Q231 739 231 621L231 139L425 139L425 621Q425 675 436 700Q453 739 499 739Q545 739 562 700Q573 675 573 621L573 139L767 139Z"  horiz-adv-x="1029" vert-adv-y="1000"  />

      
      <glyph glyph-name="uni042A" unicode="&#x042A;" d="M344 345L344 153L416 153Q530 153 530 248Q530 345 416 345L344 345M178 582L83 582Q9 582 9 656Q9 730 83 730L274 730Q319 730 331.50 706.50Q344 683 344 621L344 496L456 496Q575 496 642 431Q709 366 709 248Q709 130 635.50 65Q562 0 443 0L293 0Q228 0 203 26Q178 52 178 117L178 582Z"  horiz-adv-x="735" vert-adv-y="1000"  />

      
      <glyph glyph-name="uni042B" unicode="&#x042B;" d="M231 345L231 153L284 153Q398 153 398 248Q398 345 284 345L231 345M231 496L318 496Q437 496 504.50 431.50Q572 367 572 248Q572 130 497 63Q425 0 305 0L180 0Q115 0 90 26Q65 52 65 117L65 621Q65 739 148 739Q231 739 231 621L231 496M831 109Q831-9 747-9Q664-9 664 109L664 621Q664 739 747 739Q831 739 831 621L831 109Z"  horiz-adv-x="895" vert-adv-y="1000"  />

      
      <glyph glyph-name="uni042C" unicode="&#x042C;" d="M231 345L231 153L303 153Q417 153 417 248Q417 345 303 345L231 345M231 496L343 496Q462 496 529.50 431.50Q597 367 597 248Q597 130 522 63Q450 0 330 0L180 0Q115 0 90 26Q65 52 65 117L65 621Q65 739 148 739Q231 739 231 621L231 496Z"  horiz-adv-x="622" vert-adv-y="1000"  />

      
      <glyph glyph-name="uni042D" unicode="&#x042D;" d="M144 378Q144 444 223 444L414 444Q406 509 357.50 546Q309 583 242 583Q199 583 162 568.50Q125 554 99 554Q70 554 50 575.50Q30 597 30 626Q30 647 46 668Q100 739 243 739Q403 739 500 630Q594 525 594 364Q594 200 503 98Q407-9 245-9Q195-9 154 1Q104 13 68 37Q21 69 21 111Q21 139 40 161Q59 183 86 183Q103 183 151 165Q199 147 237 147Q310 147 358 191Q406 235 414 308L222 308Q144 308 144 378Z"  horiz-adv-x="619" vert-adv-y="1000"  />

      
      <glyph glyph-name="uni042E" unicode="&#x042E;" d="M231 446L340 446Q357 579 430 656Q509 739 639 739Q794 739 874 624Q944 525 944 364Q944 95 763 16Q706-9 639-9Q502-9 422 83Q349 166 337 307L231 307L231 109Q231-9 148-9Q65-9 65 109L65 621Q65 739 148 739Q231 739 231 621L231 446M640 598Q586 598 552 548Q524 509 514 449Q508 412 508 366Q508 280 533 218Q567 132 640 132Q713 132 747 218Q771 279 771 366Q771 480 734.50 539Q698 598 640 598Z"  horiz-adv-x="971" vert-adv-y="1000"  />

      
      <glyph glyph-name="uni042F" unicode="&#x042F;" d="M424 399L424 577L345 577Q241 577 241 490Q241 399 347 399L424 399M590 613L590 109Q590-9 507-9Q424-9 424 109L424 289L230 45Q187-9 142-9Q109-9 85.50 11.50Q62 32 62 64Q62 104 111 159L242 305Q162 318 115 370Q68 422 68 502Q68 603 139.50 666.50Q211 730 346 730L475 730Q541 730 565.50 704.50Q590 679 590 613Z"  horiz-adv-x="613" vert-adv-y="1000"  />

      
      <glyph glyph-name="uni0430" unicode="&#x0430;" d="M191 275Q191 222 216 185Q245 143 296 143Q347 143 375 185Q399 222 399 275Q399 328 375 364Q347 405 296 405Q246 405 217 364Q191 327 191 275M405 49Q355-12 269-12Q160-12 89 78Q24 161 24 273Q24 386 92 470Q164 560 275 560Q356 560 405 502Q433 553 482 553Q562 553 562 436L562 111Q562-7 482-7Q429-7 405 49Z"  horiz-adv-x="618" vert-adv-y="1000"  />

      
      <glyph glyph-name="uni0431" unicode="&#x0431;" d="M36 274L36 354Q36 665 183 708Q227 721 358 721Q412 721 422.50 728.50Q433 736 433 747Q433 762 456 772Q475 780 493 780Q546 780 546 697Q546 663 515 638Q490 618 452 611Q427 606 396 606L290 606Q237 606 209 565Q190 536 190 490L193 490Q243 529 321 529Q438 529 500 453Q556 383 556 263Q556 135 488 60Q420-15 293-15Q166-15 99 68Q36 145 36 274M190 265Q190 126 293 126Q337 126 366.50 156.50Q396 187 396 265Q396 396 293 396Q241 396 214 355Q190 319 190 265Z"  horiz-adv-x="582" vert-adv-y="1000"  />

      
      <glyph glyph-name="uni0432" unicode="&#x0432;" d="M216 449L216 326L281 326Q320 326 338 336Q362 350 362 387Q362 449 275 449L216 449M147-6Q55-6 55 99L55 449Q55 553 147 553L292 553Q401 553 453 524Q523 486 523 387Q523 317 456 281Q539 237 539 160Q539 60 464 22Q410-6 299-6L147-6M216 222L216 99L281 99Q373 99 373 160Q373 199 344 213Q325 222 281 222L216 222Z"  horiz-adv-x="570" vert-adv-y="1000"  />

      
      <glyph glyph-name="uni0433" unicode="&#x0433;" d="M55 111L55 436Q55 553 136 553L303 553Q405 553 405 484Q405 415 303 415L216 415L216 111Q216-7 136-7Q55-7 55 111Z"  horiz-adv-x="392" vert-adv-y="1000"  />

      
      <glyph glyph-name="uni0434" unicode="&#x0434;" d="M214 120L387 120L387 424L267 424Q230 424 230 387L230 185Q230 154 214 120M488 0L120 0Q120-70 118-81Q109-129 66-129Q-9-129-9-50L-9 53Q-9 104 15 115Q36 120 58 124Q82 135 82 185L82 389Q82 479 130 518Q174 553 266 553L467 553Q516 553 534 519Q547 495 547 443L547 120Q617 120 617 51L617-50Q617-129 542-129Q500-129 491-80Q488-67 488 0Z"  horiz-adv-x="623" vert-adv-y="1000"  />

      
      <glyph glyph-name="uni0435" unicode="&#x0435;" d="M192 228Q197 181 231 156Q265 131 314 131Q355 131 413 157.50Q471 184 485 184Q549 184 549 121Q549 97 531 73Q499 29 429 6Q370-14 306-14Q186-14 106 68.50Q26 151 26 272Q26 392 102.50 477Q179 562 298 562Q357 562 405 540Q474 508 518 445Q562 382 562 308Q562 268 533 247Q508 228 467 228L192 228M190 334L403 334Q400 376 370.50 403Q341 430 299 430Q256 430 227 403.50Q198 377 190 334Z"  horiz-adv-x="580" vert-adv-y="1000"  />

      
      <glyph glyph-name="uni0436" unicode="&#x0436;" d="M305 207L282 225L151 41Q117-7 70-7Q41-7 19 11Q-3 29-3 57Q-3 98 28 136L172 313L68 414Q29 452 29 492Q29 519 47.50 536Q66 553 93 553Q134 553 174 510L305 368Q305 462 309 483Q323 553 383 553Q443 553 457 483Q461 462 461 368L592 510Q632 553 672 553Q699 553 718 536Q737 519 737 492Q737 452 698 414L593 313L738 136Q769 98 769 57Q769 29 747 11Q725-7 696-7Q649-7 615 41L484 225L461 207L461 111Q461-7 383-7Q305-7 305 111L305 207Z"  horiz-adv-x="766" vert-adv-y="1000"  />

      
      <glyph glyph-name="uni0437" unicode="&#x0437;" d="M139 273Q139 326 216 326Q270 326 286 332Q317 343 317 387Q317 431 291 447Q272 458 227 458Q192 458 156 445Q117 431 97 431Q38 431 38 486Q38 563 239 563Q351 563 406 531Q478 490 478 387Q478 317 411 281Q491 238 491 160Q491-16 239-16Q24-16 24 67Q24 118 80 118Q97 118 142 103Q187 88 239 88Q325 88 325 160Q325 193 309 207Q293 221 246 222Q188 223 174 227Q139 236 139 273Z"  horiz-adv-x="524" vert-adv-y="1000"  />

      
      <glyph glyph-name="uni0438" unicode="&#x0438;" d="M216 256L410 436Q410 492 422 517Q440 553 490 553Q540 553 558 517Q570 492 570 436L570 111Q570 55 558 30Q540-7 490-7Q440-7 422 30Q410 55 410 111L410 269L216 111Q216 56 204 30Q186-7 137-7Q55-7 55 111L55 436Q55 490 68 516Q87 553 137 553Q186 553 204 517Q216 492 216 436L216 256Z"  horiz-adv-x="605" vert-adv-y="1000"  />

      
      <glyph glyph-name="uni0439" unicode="&#x0439;" d="M55 111L55 436Q55 490 68 516Q87 553 137 553Q186 553 204 517Q216 492 216 436L216 256L410 503Q449 553 490 553Q540 553 558 517Q570 492 570 436L570 111Q570 55 558 30Q540-7 490-7Q440-7 422 30Q410 55 410 111L410 276L216 42Q175-7 137-7Q55-7 55 111M313 600Q245 600 201 635Q160 667 160 706Q160 757 208 757Q235 757 255.50 727Q276 697 313 697Q352 697 371 727Q390 757 416 757Q465 757 465 706Q465 655 412 625Q368 600 313 600Z"  horiz-adv-x="605" vert-adv-y="1000"  />

      
      <glyph glyph-name="uni043A" unicode="&#x043A;" d="M240 225L216 207L216 111Q216-7 136-7Q55-7 55 111L55 435Q55 553 136 553Q197 553 211 484Q216 463 216 368L354 510Q397 554 437 554Q465 554 485 537Q505 520 505 492Q505 452 464 414L355 313L506 136Q538 98 538 57Q538 28 514.50 10.50Q491-7 462-7Q414-7 378 41L240 225Z"  horiz-adv-x="532" vert-adv-y="1000"  />

      
      <glyph glyph-name="uni043B" unicode="&#x043B;" d="M391 415L271 415Q234 415 234 378L234 122Q234 61 200 27Q166-7 105-7Q51-7 31 0Q-6 14-6 57Q-6 99 21 112Q40 122 86 122L86 377Q86 476 130 515Q171 553 271 553L471 553Q520 553 538 519Q551 495 551 443L551 111Q551-7 471-7Q423-7 404 30Q391 57 391 111L391 415Z"  horiz-adv-x="607" vert-adv-y="1000"  />

      
      <glyph glyph-name="uni043C" unicode="&#x043C;" d="M387 236L393 236L479 474Q508 553 594 553Q673 553 692 469L774 111Q783 72 783 47Q783 20 754 2Q729-13 700-13Q638-13 620 76L567 331L468 65Q439-13 390-13Q341-13 312 65L214 331L160 76Q141-13 80-13Q51-13 26 2Q-3 20-3 47Q-3 72 6 111L88 469Q107 553 186 553Q272 553 301 474L387 236Z"  horiz-adv-x="780" vert-adv-y="1000"  />

      
      <glyph glyph-name="uni043D" unicode="&#x043D;" d="M216 222L216 111Q216-7 137-7Q55-7 55 111L55 436Q55 553 137 553Q216 553 216 436L216 336L393 336L393 436Q393 553 473 553Q553 553 553 436L553 111Q553-7 473-7Q393-7 393 111L393 222L216 222Z"  horiz-adv-x="605" vert-adv-y="1000"  />

      
      <glyph glyph-name="uni043E" unicode="&#x043E;" d="M26 273Q26 396 102.50 479.50Q179 563 300 563Q423 563 498 480Q573 397 573 273Q573 150 499 68Q422-16 300-16Q179-16 101 69Q26 151 26 273M193 275Q193 220 218 179Q248 131 300 131Q352 131 382 179Q407 220 407 275Q407 329 381 369Q351 415 300 415Q248 415 218 369Q193 330 193 275Z"  horiz-adv-x="599" vert-adv-y="1000"  />

      
      <glyph glyph-name="uni043F" unicode="&#x043F;" d="M391 415L216 415L216 111Q216-7 136-7Q55-7 55 111L55 443Q55 495 69 520Q88 553 136 553L471 553Q520 553 538 519Q551 495 551 443L551 111Q551-7 471-7Q391-7 391 111L391 415Z"  horiz-adv-x="607" vert-adv-y="1000"  />

      
      <glyph glyph-name="uni0440" unicode="&#x0440;" d="M218 30L214 30L214-110Q214-226 137-226Q55-226 55-108L55 436Q55 553 137 553Q185 553 214 502Q263 557 347 557Q459 557 529 469Q593 387 593 273Q593 188 554 117Q514 42 441 6Q395-17 345-17Q272-17 218 30M214 263Q214 208 239 173Q268 133 321 133Q374 133 403 177Q428 216 428 271Q428 325 402 363Q373 407 321 407Q277 407 245.50 377.50Q214 348 214 263Z"  horiz-adv-x="618" vert-adv-y="1000"  />

      
      <glyph glyph-name="uni0441" unicode="&#x0441;" d="M26 273Q26 400 102 480.50Q178 561 304 561Q370 561 419 541Q485 513 485 457Q485 428 466 408Q447 388 418 388Q399 388 368.50 400.50Q338 413 304 413Q249 413 219 371Q192 333 192 276Q192 216 220 180Q252 140 310 140Q344 140 373 152Q402 164 421 164Q449 164 466.50 143.50Q484 123 484 94Q484 45 416 11Q367-13 294-13Q172-13 98 70Q26 150 26 273Z"  horiz-adv-x="507" vert-adv-y="1000"  />

      
      <glyph glyph-name="uni0442" unicode="&#x0442;" d="M161 415L92 415Q-9 415-9 484Q-9 553 92 553L390 553Q492 553 492 484Q492 415 390 415L321 415L321 111Q321-7 241-7Q161-7 161 111L161 415Z"  horiz-adv-x="483" vert-adv-y="1000"  />

      
      <glyph glyph-name="uni0443" unicode="&#x0443;" d="M79 553Q114 553 133 530Q146 515 161 475L253 231L352 489Q377 553 423 553Q503 553 503 476Q503 451 490 420L243-165Q215-231 172-231Q136-231 114-210Q92-189 92-153Q92-129 106-98L172 47L9 428Q0 449 0 473Q0 507 22.50 530Q45 553 79 553Z"  horiz-adv-x="494" vert-adv-y="1000"  />

      
      <glyph glyph-name="uni0444" unicode="&#x0444;" d="M496 424L496 129L524 129Q589 129 624 171Q657 210 657 276Q657 342 624 381Q588 424 524 424L496 424M499 0L499-114Q499-226 422-226Q345-226 345-114L345 0Q244 0 193 20Q114 51 70 120Q26 189 26 276Q26 365 69 433Q112 501 193 533Q244 553 345 553L345 672Q345 783 422 783Q499 783 499 672L499 553Q599 553 650 533Q732 501 775 433Q818 365 818 276Q818 188 775 121Q730 51 650 20Q599 0 499 0M348 129L348 424L320 424Q257 424 222 382.50Q187 341 187 276Q187 211 221.50 170Q256 129 320 129L348 129Z"  horiz-adv-x="844" vert-adv-y="1000"  />

      
      <glyph glyph-name="uni0445" unicode="&#x0445;" d="M260 172L145 35Q110-7 75-7Q43-7 20 17Q-3 41-3 73Q-3 106 31 144L165 292L52 407Q22 438 22 472Q22 504 44 529Q66 554 97 554Q134 554 164 520L263 406L353 516Q384 554 419 554Q453 554 477.50 531Q502 508 502 474Q502 443 466 405L359 291L486 148Q508 123 514 112Q524 94 524 68Q524 37 502.50 15Q481-7 450-7Q412-7 376 35L260 172Z"  horiz-adv-x="521" vert-adv-y="1000"  />

      
      <glyph glyph-name="uni0446" unicode="&#x0446;" d="M219 120L394 120L394 435Q394 553 474 553Q554 553 554 435L554 120Q624 120 624 51L624-50Q624-129 549-129Q507-129 498-80Q495-67 495 0L159 0Q111 0 84 37Q59 71 59 120L59 435Q59 553 139 553Q219 553 219 435L219 120Z"  horiz-adv-x="624" vert-adv-y="1000"  />

      
      <glyph glyph-name="uni0447" unicode="&#x0447;" d="M260 326L323 326L323 449Q323 553 403 553Q483 553 483 449L483 97Q483-8 403-8Q362-8 341 25Q323 53 323 97L323 213Q222 213 195 216Q114 223 75 254Q28 291 28 379L28 449Q28 553 108 553Q188 553 188 449L188 379Q188 345 208 334Q223 326 260 326Z"  horiz-adv-x="539" vert-adv-y="1000"  />

      
      <glyph glyph-name="uni0448" unicode="&#x0448;" d="M219 114L376 114L376 436Q376 553 456 553Q536 553 536 436L536 114L693 114L693 435Q693 553 773 553Q853 553 853 435L853 114Q853 0 754 0L158 0Q109 0 83 34Q59 64 59 114L59 435Q59 553 139 553Q219 553 219 435L219 114Z"  horiz-adv-x="932" vert-adv-y="1000"  />

      
      <glyph glyph-name="uni0449" unicode="&#x0449;" d="M219 114L376 114L376 436Q376 553 456 553Q536 553 536 436L536 114L693 114L693 435Q693 553 773 553Q853 553 853 435L853 114Q923 114 923 51L923-50Q923-129 848-129Q806-129 797-80Q794-67 794 0L159 0Q111 0 84 34Q59 65 59 114L59 435Q59 553 139 553Q219 553 219 435L219 114Z"  horiz-adv-x="923" vert-adv-y="1000"  />

      
      <glyph glyph-name="uni044A" unicode="&#x044A;" d="M290 333Q428 333 464 327Q574 310 601 240Q613 209 613 166Q613 67 538 28Q484 0 373 0L221 0Q129 0 129 105L129 433Q66 433 51 437Q9 448 9 492Q9 553 92 553L209 553Q259 553 277 517Q290 492 290 439L290 333M290 228L290 105L355 105Q447 105 447 166Q447 205 418 219Q399 228 355 228L290 228Z"  horiz-adv-x="639" vert-adv-y="1000"  />

      
      <glyph glyph-name="uni044B" unicode="&#x044B;" d="M216 333Q356 333 389 327Q498 310 523 237Q533 207 533 166Q533 66 462 28Q409 0 299 0L147 0Q55 0 55 105L55 449Q55 553 136 553Q216 553 216 449L216 333M216 228L216 105L281 105Q373 105 373 166Q373 205 344 219Q325 228 281 228L216 228M767 436L767 105Q767 54 753 30Q735 0 687 0Q639 0 621 30Q607 54 607 105L607 436Q607 553 687 553Q767 553 767 436Z"  horiz-adv-x="822" vert-adv-y="1000"  />

      
      <glyph glyph-name="uni044C" unicode="&#x044C;" d="M216 333Q354 333 390 327Q500 310 527 240Q539 209 539 166Q539 66 464 28Q410 0 299 0L147 0Q55 0 55 105L55 449Q55 553 136 553Q216 553 216 449L216 333M216 228L216 105L281 105Q373 105 373 166Q373 205 344 219Q325 228 281 228L216 228Z"  horiz-adv-x="565" vert-adv-y="1000"  />

      
      <glyph glyph-name="uni044D" unicode="&#x044D;" d="M481 277Q481 153 410 72Q336-13 213-13Q129-13 76 20Q23 53 23 94Q23 122 41 143Q59 164 86 164Q105 164 134 152Q163 140 197 140Q286 140 309 225L207 225Q129 225 129 277Q129 330 207 330L308 330Q282 413 203 413Q168 413 139 400.50Q110 388 89 388Q60 388 41 408Q22 428 22 457Q22 513 89 540Q138 561 203 561Q330 561 405.50 483Q481 405 481 277Z"  horiz-adv-x="507" vert-adv-y="1000"  />

      
      <glyph glyph-name="uni044E" unicode="&#x044E;" d="M293 225L216 225L216 109Q216-9 136-9Q55-9 55 109L55 438Q55 555 136 555Q216 555 216 438L216 330L294 330Q308 435 375.50 499Q443 563 548 563Q670 563 741 477Q807 398 807 273Q807 149 740 72Q670-9 548-9Q442-9 374 55Q306 119 293 225M456 275Q456 139 548 139Q641 139 641 275Q641 330 622 367Q598 415 548 415Q498 415 474 367Q456 330 456 275Z"  horiz-adv-x="838" vert-adv-y="1000"  />

      
      <glyph glyph-name="uni044F" unicode="&#x044F;" d="M360 221L324 221L178 31Q161 9 149 2Q134-7 108-7Q76-7 56.50 13.50Q37 34 37 51Q37 85 62 114L164 231Q40 257 40 387Q40 553 270 553L429 553Q484 553 504 528Q521 506 521 449L521 98Q521-7 440-7Q399-7 378 26Q360 54 360 98L360 221M360 325L360 449L295 449Q203 449 203 387Q203 325 295 325L360 325Z"  horiz-adv-x="576" vert-adv-y="1000"  />

      

  </font>
</defs>
</svg>
